<?xml version="1.0" encoding="UTF-8"?>
<svg id="Capa_1" data-name="Capa 1" xmlns="http://www.w3.org/2000/svg" viewBox="0 0 670.14 670.01">
  <defs>
    <style>
      .cls-1 {
        fill: #e12a22;
      }

      .cls-2 {
        fill: #9b2623;
      }

      .cls-3 {
        fill: #de1918;
      }

      .cls-4 {
        fill: #8a2a23;
      }

      .cls-5 {
        fill: #a3262b;
      }

      .cls-6 {
        fill: #a6252c;
      }

      .cls-7 {
        fill: #e42126;
      }

      .cls-8 {
        fill: #ab3134;
      }

      .cls-9 {
        fill: #a83936;
      }

      .cls-10 {
        fill: #c32d27;
      }

      .cls-11 {
        fill: #dd2d26;
      }

      .cls-12 {
        fill: #d42731;
      }

      .cls-13 {
        fill: #973934;
      }

      .cls-14 {
        fill: #fd1d1d;
      }

      .cls-15 {
        fill: #dedede;
      }

      .cls-16 {
        fill: #d32d30;
      }

      .cls-17 {
        fill: #b42f32;
      }

      .cls-18 {
        fill: #be272a;
      }

      .cls-19 {
        fill: #a22d2c;
      }

      .cls-20 {
        fill: #cf1f1a;
      }

      .cls-21 {
        fill: #b8262d;
      }

      .cls-22 {
        fill: #b31d20;
      }

      .cls-23 {
        fill: #c31d22;
      }

      .cls-24 {
        fill: #972621;
      }

      .cls-25 {
        fill: #9b1e1a;
      }

      .cls-26 {
        fill: #a03135;
      }

      .cls-27 {
        fill: #ac2524;
      }

      .cls-28 {
        fill: #040102;
      }

      .cls-29 {
        fill: #ac1d17;
      }

      .cls-30 {
        fill: #d02f2d;
      }

      .cls-31 {
        fill: #d12c22;
      }

      .cls-32 {
        fill: #952826;
      }

      .cls-33 {
        fill: #9e2829;
      }

      .cls-34 {
        fill: #80251d;
      }

      .cls-35 {
        fill: #e62f32;
      }

      .cls-36 {
        fill: #d82228;
      }

      .cls-37 {
        fill: #070203;
      }

      .cls-38 {
        fill: #050303;
      }

      .cls-39 {
        fill: #1f0808;
      }

      .cls-40 {
        fill: #8d231d;
      }

      .cls-41 {
        fill: #e22321;
      }

      .cls-42 {
        fill: #fefefe;
      }

      .cls-43 {
        fill: #040203;
      }

      .cls-44 {
        fill: #cb2b2b;
      }
    </style>
  </defs>
  <path d="M334.78,0c184.84-.39,334.75,149.28,335.35,334.82,.6,184.52-149.6,334.84-334.94,335.19C150.43,670.36,.08,520.14,0,335.1-.08,150.28,149.66,.39,334.78,0Z"/>
  <path class="cls-42" d="M399.44,608.17c-11.36,3.27-23.01,4.99-34.71,6.28-22.04,2.42-44.08,2.34-66.11-.37-46.23-5.69-88.63-21.65-126.74-48.37-53.44-37.47-89.96-87.51-109.35-149.92-5.6-18.02-9.13-36.46-10.92-55.24-.23-2.42,.5-2.74,2.68-2.74,56.75,.06,113.49,.06,170.24,0,2.23,0,3,.54,3.61,2.81,11.12,41.36,37.06,68.78,78.25,80.56,58.88,16.84,121.3-20.4,135.3-80.07,.6-2.56,1.49-3.34,4.19-3.33,32.16,.12,64.33,.07,96.49,.08,1.08,0,2.16,.07,3.24,.11,1.23,3.28,.29,6.63-.01,9.86-1.08,11.42-2.61,22.78-4.82,34.06-2.33,11.91-5.19,23.68-8.68,35.31-5.52,18.41-12.69,36.16-21.42,53.25-10.67,20.89-23.41,40.44-38.7,58.32-14.63,17.12-30.85,32.49-49.28,45.43-7.4,5.2-14.72,10.64-23.27,13.98Z"/>
  <path class="cls-14" d="M185.62,97.81c17.57-11.28,36.25-20.26,55.87-27.37,11.24-4.07,22.77-7.07,34.32-10.03,1.03-.26,2.14-.2,3.22-.29,1.75-.58,3.73-.11,5.37-1.17,.38-.05,.75-.1,1.13-.15,1.77-.55,3.74-.11,5.4-1.15,.78-.06,1.57-.12,2.35-.18,1.56-.29,3.13-.42,4.7-.56,1.13-.09,2.33,.26,3.33-.58,19.86-2.82,39.78-3.34,59.75-1.28,3.23,1.12,6.66,.47,9.94,1.14l4.3,.17c1.64,1.18,3.65,.59,5.43,1.11,.37,.05,.75,.1,1.12,.14,2.08,1.18,4.48,.53,6.65,1.2,.38,.04,.75,.07,1.13,.11,1.64,1.08,3.63,.6,5.38,1.18,.37,.04,.75,.09,1.12,.13,.84,.79,2.11,.41,2.98,1.11,1.38,.86,2.73,1.76,4.18,2.51,14.42,7.48,26.94,17.61,39.43,27.84,11.04,9.04,20.74,19.39,29.84,30.24,9.24,11.01,17.62,22.71,25.25,34.97,9.42,15.13,17.27,31.02,24.23,47.36,4.11,9.66,7.39,19.65,10.41,29.72,3.36,11.2,6.25,22.53,8.36,34.02,1.93,10.51,4.04,21.03,4.44,31.79,.11,3.12,.55,6.24,.82,9.37,.09,1.07,.47,2.15-.45,3.06-16.34,.04-32.68,.11-49.02,.11-17.86,0-35.71-.08-53.57-.12-1.35-1.41,.12-3.71-1.57-5.02-1.63-4.59-3.25-9.18-4.91-13.75-.4-1.09-.97-2.12-1.46-3.18-1.86-2.13-2.95-4.65-3.74-7.33-.03-.34-.07-.68-.1-1.01-.31-.83-.88-1.42-1.66-1.82-1.36-1.2-2.12-2.78-2.74-4.44-.18-.83-.56-1.53-1.33-1.97-2.73-2.97-5.02-6.26-7.16-9.66-4.73-6.52-10.82-11.67-17.07-16.6-4.43-3.49-9.25-6.43-14.17-9.19-.6-.61-1.37-.91-2.15-1.2-9.37-4.58-19.11-8.12-29.38-9.97-11.52-2.07-23.11-2.72-34.76-.92-1.7,.26-3.43,.32-5.14,.47-1.77,.36-3.61,.4-5.29,1.17-7.76,2.03-15.33,4.63-22.65,7.92-.71,.36-1.48,.61-2.07,1.18-3.21,1.76-6.43,3.52-9.64,5.29-.68,.43-1.53,.61-2.02,1.33-1.55,1.2-3.1,2.41-4.65,3.61-.39,.82-1.4,.85-1.92,1.5-10.55,7.81-18.84,17.68-25.95,28.62-.63,.55-.86,1.35-1.24,2.06-5.08,8.78-8.72,18.17-11.73,27.82-1.28,1.46-.54,3.47-1.37,5.06-1.18,.06-2.37,.17-3.55,.17-54.5,0-108.99,0-163.49,0q-4.91,0-4.54-4.86c.04-.54,.1-1.08,.15-1.61,1.15-2.58,.54-5.4,1.15-8.06-.29-3.49,1-6.76,1.43-10.14,1.06-1.66,.62-3.65,1.16-5.43,.04-.36,.09-.71,.13-1.07,1.1-1.63,.6-3.61,1.19-5.34,1.03-7.45,3.34-14.6,5.46-21.77,3.18-10.76,7.27-21.21,11.69-31.53,.2-.48,.62-.86,.94-1.29,1.02-1.92,2.73-3.52,2.67-5.92,1.53-4.19,3.79-8.02,5.85-11.94,.35-.67,.77-1.27,.78-2.05,1.48-4.76,4.31-8.77,7.14-12.77,.77-.46,1.16-1.16,1.24-2.05,1.06-2.57,2.49-4.88,4.61-6.72l-.02,.02c1.1-2.62,2.41-5.1,4.63-6.97,.81-.38,1.13-1.13,1.36-1.93,1.62-3.08,3.73-5.76,6.38-8,4.96-5.86,9.93-11.73,14.89-17.59,.53-.55,.55-1.33,.9-1.96,.16-.25,.35-.48,.57-.69,5.48-4.98,10.28-10.65,15.84-15.55,1.46-1.29,2.94-2.45,4.69-3.28l2.66-1.99c1.49,.18,1.86-1.13,2.6-1.95,6.87-6.42,14.57-11.75,22.26-17.1,1.84-1.28,3.76-2.44,5.64-3.66,.69-.45,1.53-.64,2.05-1.34Z"/>
  <path class="cls-3" d="M545.62,312.24c-1.45-13.23-2.44-26.48-4.92-39.62-2.86-15.21-6.54-30.17-11.09-44.93-6.27-20.31-15.01-39.61-25.26-58.18-6.32-11.45-13.45-22.43-21.29-32.91-8.97-11.99-18.54-23.53-29.32-33.89-11.23-10.8-23.43-20.54-36.32-29.39-5.15-3.54-10.52-6.57-15.98-9.51-1.07-.57-2.07-1.18-2.71-2.24,.66-.63,1.38-.45,2.1-.14,5.79,.72,11.35,2.51,16.88,4.19,13.73,4.16,27.15,9.23,40.15,15.37,1.93,.91,3.67,2.24,5.84,2.62,2.8,.53,5.17,1.86,7.2,3.83,.87,.76,1.66,1.69,3.01,1.45,2.9,1.29,6.01,2.23,8.06,4.91,3.46,2.23,6.91,4.47,10.37,6.7,.51,.66,1.38,.78,1.96,1.32,2.41,1.67,5.02,3.06,7.16,5.11,.48,.72,1.34,.89,2,1.35,19.52,14.08,36.93,30.4,52.04,49.15,.6,.74,1.22,1.46,1.84,2.19,.51,.62,.62,1.52,1.4,1.94,2.41,2.6,4.49,5.44,6.43,8.4,.43,.69,.59,1.57,1.4,2,2.83,3.49,5.35,7.2,7.69,11.03,.45,.65,.62,1.49,1.29,2,2.19,3.65,4.37,7.29,6.56,10.94,.34,.73,.6,1.52,1.22,2.09,7.2,12.36,13.04,25.36,18.19,38.68,3.41,8.82,6.1,17.87,8.73,26.94,.3,1.02,.28,2.13,.4,3.2,.67,1.24,.42,2.77,1.21,3.98,.05,.38,.1,.76,.15,1.14,.5,1.32,.41,2.81,1.12,4.07,.05,.6,.09,1.19,.14,1.79,.72,1.72,.06,3.73,1.17,5.37,2.04,8.75,3.09,17.64,3.96,26.57,.14,1.47,.28,2.7-1.97,2.69-23.61-.1-47.22-.12-70.82-.16Z"/>
  <path class="cls-15" d="M399.44,608.17c6.26-4.2,12.85-7.85,19.09-12.11,6.6-4.51,13.01-9.25,19.15-14.33,8.17-6.75,15.89-14.02,23.13-21.76,12.41-13.26,23.71-27.38,33.49-42.73,5.58-8.75,10.84-17.69,15.52-26.92,6.16-12.12,11.63-24.58,16.2-37.42,5.66-15.87,10.22-32.06,13.48-48.58,2.18-11.07,3.82-22.25,4.94-33.5,.43-4.28,.14-8.63,1.16-12.85,22.52-.04,45.04-.06,67.55-.14,1.56,0,1.99,.33,1.84,1.99-8.84,98.45-71.3,187.44-160.99,229.38-16.77,7.84-34.1,14.05-52.02,18.62-.83,.21-1.7,.24-2.55,.35Z"/>
  <path class="cls-42" d="M334.97,399.74c-36.21-.1-65.08-29.7-64.68-66.33,.37-34.57,29.81-63.22,64.87-63.13,36.01,.09,64.92,29.19,64.58,66.06-.32,35.6-29.59,63.48-64.77,63.4Z"/>
  <path class="cls-38" d="M129.8,143.56c.07,1.01-.77,1.3-1.39,1.76-.05-.43,.04-.97-.19-1.26-1.27-1.59-1.78-3.29-.36-4.93,1.53-1.77,3.42-.95,5.23-.15,.6-2.59-1.27-3.12-3.24-3.89,1.2-1.02,3.06-1.47,2.51-3.48-.14-.54,.3-1.03,.91-1.14,.69-.12,1.27,.05,1.54,.82,.19,.54,.08,1.56,1.04,1.14,.61-.27,1.13-.99,1.45-1.62,.3-.58,.13-1.27-.62-1.6-.65-.29-2.05-.12-1.01-1.5,.64-.85,.95-.62,2.07-.11,2.79,1.27,6.11-.04,7.52-2.3,1.63-2.61,3.34-1.39,5.13-1.46-6.87,6.56-13.73,13.12-20.6,19.69-.25-.35,.08,.12-.17-.23,.03,.1,.11,.17,.16,.26Z"/>
  <path class="cls-28" d="M418.34,264.04c3.25,2.52,5,6.27,7.63,9.3,.73,.51,.9,1.39,1.38,2.07,.87,1.46,1.73,2.93,2.6,4.39,.37,.37,.45,.79,.23,1.26-1.61,.38-3.38,.51-2.87,3.01,.18,.87,.26,2.11-1.2,2.18-1.26,.06-2.36-1.06-2.35-1.84,.04-2.04-1.89-4.62,1.48-6.07,.97-.42,.94-1.81-.69-2.48-2.51-1.03-4.89-2.29-6.57-4.66-1.06-1.51-1.71-2.96-.27-4.23,1.13-1,.47-1.96,.63-2.92Z"/>
  <path class="cls-43" d="M101.16,179.8c-.75,2.66-3.1,4.42-3.98,7.01-.44,.69-.64,1.54-1.32,2.07-2.57,4.15-5.13,8.31-7.7,12.46-.68-1.97-.42-3.6,1.1-5.26,1.63-1.79,3.48-3.67,1.63-6.61-1.04-1.66,1.22-1.68,1.93-2.27-.27-1.37-2.15-.14-1.92-1.23,.26-1.24,1.2-2.37,1.98-3.44,.26-.36,1.03-.3,1.45-.6,2.98-2.07,4.14-2.46,6.82-2.13Z"/>
  <path class="cls-43" d="M106.21,173.26c-2.02,1.93-2.88,4.75-5.07,6.56-.13-1.22-1.05-2.07-1.96-2.4-3.27-1.2-.77-2.33,.18-2.64,2.52-.82,3.44-2.52,3.22-4.88-.13-1.33,.41-1.54,1.44-1.98,1.09-.46,2.49-1.03,2.52-2.58,.03-1.42,1.02-1.18,1.82-1.16,1.97,.06,3.92,.2,3.82-2.98,.45,.57,.9,1.14,1.35,1.71-1.97,2.78-3.95,5.55-5.92,8.33-.5,.65-.63,1.55-1.39,2.02Z"/>
  <path class="cls-37" d="M481.96,93.78c-2.75-1.53-5.68-2.78-8.06-4.91,1.44,.22,1.29-1.22,1.72-1.86,1.53-2.33,1.43-2.39,3.86-.71,2.82,1.96,3.88,5.15,2.49,7.48Z"/>
  <path class="cls-37" d="M470.89,87.42c-2.53-1.03-4.97-2.22-7.2-3.83,1.28-.6,2.23-1.51,3.97-.21,1.11,.83,3.32,.19,5.03,.21,.9,.01,1.42,.47,1.39,1.38-.04,.98-.36,1.6-1.6,1.39-.66-.11-2.24-1.02-1.6,1.06Z"/>
  <path class="cls-28" d="M431.34,282.95c1.81,2.15,2.82,4.72,3.74,7.33-.1,.04-.27,.12-.28,.1-1.37-1.92-3.49-1.83-5.49-2.07,.4-.67,1.41-.94,1.3-1.95,1.36-.9-.28-2.44,.73-3.41Z"/>
  <path class="cls-11" d="M370.99,56.21c-2.56,.02-5.13,.05-7.69,.05-.95,0-2.01,.15-2.25-1.2,3.4-.39,6.66,.48,9.94,1.14Z"/>
  <path class="cls-41" d="M81.53,215.34c1.73,3.16-1.22,4.2-2.67,5.92,.43-2.18,1.26-4.19,2.67-5.92Z"/>
  <path class="cls-30" d="M56.86,297.83c.02,1.93,.06,3.86,.06,5.79,0,.95,.14,2.01-1.21,2.26-.23-2.77,.38-5.43,1.15-8.06Z"/>
  <path class="cls-28" d="M429.85,288.42c-2.5,.79-4.23,.51-5.96,.12,1.76-1.39,3.58-.91,5.96-.12Z"/>
  <path class="cls-16" d="M388.49,58.84c-2.21-.44-4.82,1.33-6.65-1.2,2.33-.24,4.5,.44,6.65,1.2Z"/>
  <path class="cls-35" d="M441.46,307.21c2.97,.91,.87,3.4,1.57,5.02-1.8-1.27-1.2-3.3-1.57-5.02Z"/>
  <path class="cls-23" d="M614.45,283.15c-.66,.2-1.24,.32-1.22-.7,.03-1.56,.04-3.11,.06-4.67,1.03,1.65,1.33,3.46,1.17,5.37Z"/>
  <path class="cls-5" d="M298.6,57.52c-1.78-.01-3.55-.02-5.33-.04,1.72-.83,3.54-1.17,5.43-1.13,.35,.42,.35,.81-.1,1.16Z"/>
  <path class="cls-18" d="M290.93,57.66c-1.38,2.34-3.57,.89-5.4,1.15,1.73-.73,3.47-1.39,5.4-1.15Z"/>
  <path class="cls-12" d="M284.39,58.96c-1.36,2.37-3.56,.85-5.37,1.17,1.71-.76,3.42-1.49,5.37-1.17Z"/>
  <path class="cls-10" d="M395,60.12c-1.81-.32-4.02,1.21-5.38-1.18,1.92-.2,3.68,.33,5.38,1.18Z"/>
  <path class="cls-44" d="M59.45,282.26c-.29,1.83,1.22,4.04-1.16,5.43-.25-1.94,.38-3.7,1.16-5.43Z"/>
  <path class="cls-31" d="M60.77,275.85c-.34,1.79,1.23,4.01-1.19,5.34-.23-1.92,.35-3.66,1.19-5.34Z"/>
  <path class="cls-36" d="M227.13,312.18c.53-1.67-1.14-3.93,1.37-5.06,.05,1.82-.23,3.56-1.37,5.06Z"/>
  <path class="cls-33" d="M380.72,57.5c-1.84-.23-4,1.12-5.43-1.11,1.88,.02,3.71,.31,5.43,1.11Z"/>
  <path class="cls-22" d="M400.82,61.41c-.7,.05-1.4,.09-2.1,.14-.97-.23-2.3,.28-2.6-1.3,1.72-.25,3.24,.33,4.7,1.16Z"/>
  <path class="cls-20" d="M310.37,227.8c1.5-1.57,3.4-1.34,5.29-1.18-1.69,.74-3.39,1.4-5.29,1.18Z"/>
  <path class="cls-29" d="M611.87,270.79c-1.53-.98-1.21-2.53-1.21-3.98,.98,1.15,1.45,2.46,1.21,3.98Z"/>
  <path class="cls-25" d="M613.14,275.99c-1.44-1.06-1.27-2.57-1.12-4.07,.89,1.21,1.37,2.54,1.12,4.07Z"/>
  <path class="cls-7" d="M155.66,119.91c-.37,1.31-.43,3.03-2.6,1.95,.8-.73,1.33-1.83,2.6-1.95Z"/>
  <path class="cls-28" d="M429.35,283.6c.56,1.23,.9,2,1.25,2.76-.32-.02-.66,.03-.95-.07-1.3-.46-1.11-1.27-.29-2.69Z"/>
  <path class="cls-1" d="M298.6,57.52c.03-.39,.07-.77,.1-1.16,.86,0,1.73,0,2.59-.01-.34,1.69-1.65,1.12-2.7,1.17Z"/>
  <path class="cls-19" d="M384.94,237.05c1.03-.16,1.96-.14,2.15,1.2-.98,.08-1.58-.54-2.15-1.2Z"/>
  <path class="cls-21" d="M273.99,243.52c.09-1.33,.99-1.43,2.02-1.33-.49,.72-1.04,1.36-2.02,1.33Z"/>
  <path class="cls-39" d="M267.42,248.63c.14-1.13,1.11-1.22,1.92-1.5-.17,1.1-.87,1.53-1.92,1.5Z"/>
  <path class="cls-6" d="M566.57,171.94c-1.4-.01-1.5-.94-1.4-2,.76,.46,1.34,1.05,1.4,2Z"/>
  <path class="cls-24" d="M558.74,161.53c-1.35,0-1.45-.92-1.4-1.94,.76,.43,1.37,.97,1.4,1.94Z"/>
  <path class="cls-27" d="M240.24,279.31c-.12-1.01-.06-1.9,1.24-2.06,.12,1.01-.55,1.54-1.24,2.06Z"/>
  <path class="cls-13" d="M430.18,281.06c-.08-.42-.15-.84-.23-1.26,1.31,.18,1.4,1.09,1.29,2.13-.35-.29-.7-.58-1.06-.87Z"/>
  <path class="cls-2" d="M503.45,108.25c-1.02,.08-1.93-.01-2-1.35,.98-.02,1.53,.6,2,1.35Z"/>
  <path class="cls-34" d="M494.29,101.8c-.96,0-1.85-.08-1.96-1.32,.98-.04,1.55,.52,1.96,1.32Z"/>
  <path class="cls-26" d="M185.62,97.81c-.11,1.33-1.02,1.42-2.05,1.34,.54-.67,1.08-1.34,2.05-1.34Z"/>
  <path class="cls-4" d="M583.32,197.99c-1.34-.15-1.36-1.07-1.22-2.08,.73,.51,1.28,1.11,1.22,2.08Z"/>
  <path class="cls-40" d="M575.54,184.97c-1.28-.12-1.37-1.01-1.29-2,.71,.49,1.35,1.02,1.29,2Z"/>
  <path class="cls-32" d="M285.65,236.9c.19-1.28,1.09-1.3,2.07-1.18-.52,.68-1.08,1.31-2.07,1.18Z"/>
  <path class="cls-8" d="M106.21,173.26c.02-.98,.67-1.53,1.39-2.02,.09,1.05-.05,1.95-1.39,2.02Z"/>
  <path class="cls-9" d="M427.35,275.41c-.72-.52-1.29-1.14-1.38-2.07,1.33,.11,1.48,1.01,1.38,2.07Z"/>
  <path class="cls-17" d="M95.86,188.88c-.04-1,.61-1.55,1.32-2.07,.11,1.04,.01,1.95-1.32,2.07Z"/>
  <path d="M129.8,143.56c-.72-.56-1.63-1.04-.84-2.4,1.24,.55,.47,1.69,.85,2.37,0,0-.01,.03-.01,.03Z"/>
</svg>