<?xml version="1.0" encoding="UTF-8"?>
<svg id="Capa_1" data-name="Capa 1" xmlns="http://www.w3.org/2000/svg" xmlns:xlink="http://www.w3.org/1999/xlink" viewBox="0 0 1150 850">
  <defs>
    <style>
      .cls-1 {
        stroke: #659d91;
      }

      .cls-1, .cls-2, .cls-3, .cls-4 {
        stroke-miterlimit: 10;
      }

      .cls-1, .cls-2, .cls-5 {
        fill: none;
      }

      .cls-6 {
        fill: #85b571;
      }

      .cls-7 {
        fill: #65bb87;
      }

      .cls-8 {
        fill: #659d91;
      }

      .cls-2 {
        stroke: #b9d2cd;
      }

      .cls-9 {
        fill: #abd791;
      }

      .cls-10 {
        fill: #cbd997;
      }

      .cls-11 {
        fill: #81876b;
      }

      .cls-3 {
        fill: #c5f3c1;
      }

      .cls-3, .cls-4 {
        stroke: #afd753;
        stroke-width: 5px;
      }

      .cls-4 {
        fill: url(#cesped1);
        opacity: .67;
      }

      .cls-12 {
        fill: #659d63;
      }
    </style>
    <pattern id="cesped1" x="0" y="0" width="200" height="200" patternUnits="userSpaceOnUse" viewBox="0 0 200 200">
      <g>
        <rect class="cls-5" width="200" height="200"/>
        <g>
          <rect class="cls-9" x="100" y="150" width="100" height="100"/>
          <path class="cls-2" d="M127.87,175.74"/>
          <path class="cls-8" d="M125.75,215.17l-1.44-7.58c-.24-1.26-.48-2.53-.72-3.79-.17-.92-.42-2.02-.06-2.93,.51-1.29,2.27-1.4,3.37-.89,1.74,.81,2.47,2.92,2.84,4.66,.26,1.18,2.22,1.55,2.74,.36,.91-2.08,3.38-6.92,6.2-4.27s2.34,7.53,.77,10.58c-.89,1.71,1.7,3.23,2.59,1.51,2.25-4.34,2.54-11.19-1.64-14.56-1.9-1.53-4.49-1.68-6.5-.28-1.9,1.32-3.1,3.43-4,5.51l2.74,.36c-.54-2.5-1.78-5.11-4.11-6.39-2.06-1.13-4.91-1.02-6.66,.64-2.25,2.12-1.38,5.38-.88,8.03l1.87,9.85c.36,1.89,3.25,1.09,2.89-.8h0Z"/>
          <path class="cls-8" d="M175.25,178.77c.87-.76,.78,.13,.45-.26-.07-.09-.18-.16-.25-.25-.22-.25-.4-.55-.58-.83-.42-.65-.8-1.33-1.12-2.03-.61-1.32-1.05-2.8-1.21-4.25-.08-.76-.14-2.77,1.08-2.79,.82-.01,1.91,1.26,2.54,1.68,1.02,.68,2.28,.95,3.41,.35,1.3-.7,1.76-2.25,2.55-3.41,.65-.97,1.58-1.91,2.81-1.99,1.35-.09,1.75,.88,1.99,2.04,.71,3.38-.02,6.95-1.8,9.89-1,1.65,1.59,3.16,2.59,1.51,2.14-3.52,2.9-7.72,2.18-11.77-.35-1.99-1.25-3.83-3.31-4.47-1.79-.55-3.71-.01-5.15,1.13-.73,.57-1.31,1.27-1.84,2.03-.26,.38-.5,.77-.72,1.17-.2,.36-.38,.89-.68,1.18-.05,.05-.02,.03-.03,.03-.13-.1-.35-.17-.58-.33-.58-.4-1.09-.89-1.69-1.27-1.58-1.02-3.52-.98-4.92,.35-1.6,1.52-1.62,3.77-1.29,5.8,.36,2.21,1.19,4.38,2.35,6.3,1.09,1.79,3.16,4.2,5.32,2.31,1.46-1.27-.67-3.39-2.12-2.12h0Z"/>
          <path class="cls-12" d="M112.58,162.47c-.1,2.19,.11,4.39,.6,6.52,.17,.77,1.1,1.29,1.85,1.05,.8-.26,1.23-1.02,1.05-1.85-.11-.5-.21-1.01-.29-1.51-.01-.09-.06-.26-.05-.35,.02,.18,.03,.22,.01,.1,0-.06-.02-.12-.02-.18-.03-.26-.06-.51-.08-.77-.09-1-.1-2.01-.06-3.02,.04-.78-.72-1.54-1.5-1.5-.84,.04-1.46,.66-1.5,1.5h0Z"/>
          <path class="cls-12" d="M120.01,165.71c.11,.05,.22,.12,.32,.19l-.3-.23c.12,.1,.23,.21,.33,.33l-.23-.3c.11,.14,.2,.3,.27,.46l-.15-.36c.07,.18,.12,.36,.15,.55l-.05-.4c.02,.17,.02,.33,0,.5l.05-.4c-.02,.16-.06,.31-.12,.45l.15-.36s-.04,.08-.06,.12c-.18,.36-.26,.76-.15,1.16,.1,.35,.36,.73,.69,.9,.35,.18,.77,.28,1.16,.15,.36-.12,.72-.34,.9-.69,.24-.48,.36-.93,.4-1.46,.02-.26-.03-.51-.07-.77-.02-.14-.05-.28-.1-.41-.17-.51-.4-.9-.74-1.31-.25-.29-.57-.55-.92-.71-.17-.11-.36-.17-.56-.18-.2-.04-.4-.04-.6,.03-.35,.1-.73,.36-.9,.69-.18,.35-.28,.77-.15,1.16,.11,.35,.34,.73,.69,.9h0Z"/>
          <path class="cls-12" d="M142.71,177.28v2.04c0,.38,.17,.79,.44,1.06,.14,.15,.3,.25,.48,.31,.18,.09,.37,.14,.58,.13,.39-.02,.79-.14,1.06-.44s.44-.65,.44-1.06v-2.04c0-.38-.17-.79-.44-1.06-.14-.15-.3-.25-.48-.31-.18-.09-.37-.14-.58-.13-.39,.02-.79,.14-1.06,.44s-.44,.65-.44,1.06h0Z"/>
          <path class="cls-12" d="M147.75,178.34l.51,.51c.14,.15,.3,.25,.48,.31,.18,.09,.37,.14,.58,.13,.21,0,.4-.04,.58-.13,.19-.06,.35-.16,.48-.31l.23-.3c.14-.23,.2-.49,.2-.76l-.05-.4c-.07-.25-.2-.47-.39-.66l-.51-.51c-.14-.15-.3-.25-.48-.31-.18-.09-.37-.14-.58-.13-.21,0-.4,.04-.58,.13-.19,.06-.35,.16-.48,.31l-.23,.3c-.14,.23-.2,.49-.2,.76l.05,.4c.07,.25,.2,.47,.39,.66h0Z"/>
          <path class="cls-12" d="M110.85,189.21c-.11-.12-.22-.23-.33-.36-.04-.04-.33-.41-.16-.18-.17-.22-.32-.45-.46-.69-.15-.26-.29-.53-.42-.8-.03-.06-.06-.13-.09-.19,.06,.14,.06,.14,0-.03-.04-.13-.09-.26-.14-.39-.08-.26-.16-.53-.22-.81-.03-.16-.06-.32-.09-.48-.02-.11-.01-.09,0,.05-.01-.09-.02-.18-.03-.28-.02-.28-.03-.55-.03-.83,0-.14,0-.28,.02-.42,0-.06,.07-.62,.02-.29l-1.85,1.05c.16,.06,.16,.06,0-.01,.08,.04,.15,.07,.23,.11,.11,.06,.21,.14,.32,.2-.26-.16,.04,.04,.09,.09,.11,.1,.2,.21,.31,.33,.07,.08,.05,.07-.04-.05,.05,.07,.09,.14,.14,.21,.07,.11,.12,.22,.18,.34-.14-.3,0,.04,.03,.12s.11,.6,.07,.23c.11,.97,.87,1.7,1.9,1.45s1.85-.95,2.5-1.79c.28-.37,.54-.75,.78-1.15,.11-.19,.22-.38,.34-.56,.06-.09,.12-.19,.19-.28,.03-.05,.22-.29,.04-.07,.12-.15,.25-.3,.39-.44,.08-.07,.15-.15,.24-.21-.17,.13-.05,.05,.06-.02,.09-.05,.31-.1,.04-.03,.05-.01,.38-.13,.16-.06-.24,.07,.11-.05,.12,0l-.2-.02,.1,.03c.13,.04,.13,.04,.01,0-.1-.04-.11-.05-.04,0,.17,.03,.14,.12,0-.03,.06,.06,.12,.13,.18,.18,.05,.06,.05,.05-.02-.03-.07-.1-.08-.09,0,.01,.04,.18,0-.01-.03-.1,.09,.28,.01-.24,0-.09,0,.18,.11-.34,.02-.09,.03-.09,.32-.46,.14-.27-.55,.56-.6,1.57,0,2.12s1.54,.6,2.12,0c1.03-1.06,.87-2.63-.1-3.68s-2.42-1.27-3.72-.68c-1.11,.51-1.87,1.56-2.48,2.57-.14,.22-.27,.45-.41,.67-.07,.11-.15,.22-.22,.33-.19,.29,.12-.11-.09,.12-.1,.11-.2,.23-.31,.33-.05,.04-.09,.09-.14,.13,.12-.09,.14-.1,.05-.04-.11,.07-.22,.13-.32,.19-.1,.05-.07,.04,.07-.03-.08,.03-.16,.05-.25,.07l1.9,1.45c-.24-2.08-1.52-3.76-3.52-4.45-.7-.24-1.73,.28-1.85,1.05-.47,3.14,.45,6.31,2.68,8.61,.55,.56,1.58,.59,2.12,0s.58-1.52,0-2.12h0Z"/>
          <path class="cls-6" d="M146.24,163.55c-.58,.04-1.22-.31-.98-.99,.26-.72,1.12-.61,1.74-.53,1.07,.13,2.13,.46,3.21,.39,1.29-.08,2.39-.61,3.16-1.66,.59-.8,.75-1.86,1.34-2.64,.15-.21,.24-.24,.4-.33-.03,.02,.09-.01,.2-.02,.25,0,.58,.1,.88,.3,.66,.44,.94,1.13,.82,2.04-.15,1.09-.81,2.1-1.49,2.92-.52,.62-.61,1.51,0,2.12,.54,.54,1.6,.62,2.12,0,1.75-2.08,3.19-4.99,1.9-7.68-.99-2.09-3.8-3.43-5.95-2.28-1.21,.65-1.69,1.84-2.22,3.02-.16,.35-.32,.76-.61,1-.21,.18-.44,.2-.81,.2-2.18,0-4.54-1.17-6.49,.6-1.12,1.02-1.53,2.72-.98,4.13,.6,1.5,2.14,2.51,3.77,2.39,.81-.06,1.5-.65,1.5-1.5,0-.77-.69-1.56-1.5-1.5h0Z"/>
          <path class="cls-6" d="M182.66,194.35c-1.05,2.12-.72,4.66,.87,6.42,.53,.58,1.59,.58,2.12,0,.57-.62,.56-1.5,0-2.12-.08-.08-.15-.17-.22-.26l.23,.3c-.2-.27-.37-.56-.5-.87l.15,.36c-.15-.36-.25-.72-.3-1.11l.05,.4c-.05-.38-.05-.76,0-1.15l-.05,.4c.05-.34,.14-.66,.26-.97l-.15,.36c.04-.08,.07-.16,.11-.25,.18-.36,.26-.75,.15-1.16-.1-.35-.36-.73-.69-.9-.68-.36-1.68-.21-2.05,.54h0Z"/>
          <path class="cls-6" d="M187.59,197.22s.08,.09,.12,.14l-.23-.3c.11,.14,.2,.3,.27,.46l-.15-.36c.08,.18,.13,.38,.16,.57l-.05-.4c.02,.19,.02,.38,0,.56l.05-.4c-.01,.1-.04,.21-.07,.31-.11,.37-.04,.82,.15,1.16,.09,.17,.22,.32,.39,.42,.14,.13,.31,.22,.51,.27,.38,.09,.81,.07,1.16-.15s.58-.51,.69-.9c.03-.09,.05-.18,.06-.28,.03-.22,.07-.44,.08-.66,0-.09,0-.19-.01-.28-.02-.22-.05-.45-.1-.66-.07-.3-.2-.59-.33-.86s-.35-.53-.55-.77c-.14-.15-.3-.25-.48-.31-.18-.09-.37-.14-.58-.13-.21,0-.4,.04-.58,.13-.19,.06-.35,.16-.48,.31-.26,.29-.46,.66-.44,1.06l.05,.4c.07,.25,.2,.47,.39,.66h0Z"/>
          <path class="cls-6" d="M159.31,196.82c-.5-2.75-1.88-5.32-3.84-7.31-.55-.56-1.58-.59-2.12,0s-.59,1.52,0,2.12c.22,.22,.43,.44,.63,.68,.09,.11,.18,.22,.28,.34,.13,.16-.21-.29,0,0,.04,.06,.09,.12,.13,.18,.36,.5,.68,1.03,.97,1.57,.07,.13,.13,.26,.19,.39,.04,.08,.11,.35,.18,.4-.09-.06-.1-.25,0,0,.03,.07,.05,.13,.08,.2,.05,.14,.1,.27,.15,.41,.2,.6,.36,1.22,.47,1.84,.14,.77,1.12,1.28,1.85,1.05,.83-.27,1.2-1.02,1.05-1.85h0Z"/>
          <path class="cls-6" d="M163.78,196.87c-1.26-4.3-1.16-8.83,.24-13.08,.61-1.84-2.29-2.63-2.89-.8-1.56,4.73-1.64,9.89-.24,14.67,.54,1.85,3.44,1.06,2.89-.8h0Z"/>
          <path class="cls-10" d="M174.51,162.37c2.35,0,4.61-2.07,4.5-4.5s-1.98-4.5-4.5-4.5c-2.35,0-4.61,2.07-4.5,4.5s1.98,4.5,4.5,4.5h0Z"/>
          <path class="cls-10" d="M129.57,189.61c2.35,0,4.61-2.07,4.5-4.5s-1.98-4.5-4.5-4.5c-2.35,0-4.61,2.07-4.5,4.5s1.98,4.5,4.5,4.5h0Z"/>
        </g>
        <g>
          <rect class="cls-9" x="0" y="150" width="100" height="100"/>
          <path class="cls-2" d="M27.87,175.74"/>
          <path class="cls-8" d="M25.75,215.17l-1.44-7.58c-.24-1.26-.48-2.53-.72-3.79-.17-.92-.42-2.02-.06-2.93,.51-1.29,2.27-1.4,3.37-.89,1.74,.81,2.47,2.92,2.84,4.66,.26,1.18,2.22,1.55,2.74,.36,.91-2.08,3.38-6.92,6.2-4.27s2.34,7.53,.77,10.58c-.89,1.71,1.7,3.23,2.59,1.51,2.25-4.34,2.54-11.19-1.64-14.56-1.9-1.53-4.49-1.68-6.5-.28-1.9,1.32-3.1,3.43-4,5.51l2.74,.36c-.54-2.5-1.78-5.11-4.11-6.39-2.06-1.13-4.91-1.02-6.66,.64-2.25,2.12-1.38,5.38-.88,8.03l1.87,9.85c.36,1.89,3.25,1.09,2.89-.8h0Z"/>
          <path class="cls-8" d="M75.25,178.77c.87-.76,.78,.13,.45-.26-.07-.09-.18-.16-.25-.25-.22-.25-.4-.55-.58-.83-.42-.65-.8-1.33-1.12-2.03-.61-1.32-1.05-2.8-1.21-4.25-.08-.76-.14-2.77,1.08-2.79,.82-.01,1.91,1.26,2.54,1.68,1.02,.68,2.28,.95,3.41,.35,1.3-.7,1.76-2.25,2.55-3.41,.65-.97,1.58-1.91,2.81-1.99,1.35-.09,1.75,.88,1.99,2.04,.71,3.38-.02,6.95-1.8,9.89-1,1.65,1.59,3.16,2.59,1.51,2.14-3.52,2.9-7.72,2.18-11.77-.35-1.99-1.25-3.83-3.31-4.47-1.79-.55-3.71-.01-5.15,1.13-.73,.57-1.31,1.27-1.84,2.03-.26,.38-.5,.77-.72,1.17-.2,.36-.38,.89-.68,1.18-.05,.05-.02,.03-.03,.03-.13-.1-.35-.17-.58-.33-.58-.4-1.09-.89-1.69-1.27-1.58-1.02-3.52-.98-4.92,.35-1.6,1.52-1.62,3.77-1.29,5.8,.36,2.21,1.19,4.38,2.35,6.3,1.09,1.79,3.16,4.2,5.32,2.31,1.46-1.27-.67-3.39-2.12-2.12h0Z"/>
          <path class="cls-12" d="M12.58,162.47c-.1,2.19,.11,4.39,.6,6.52,.17,.77,1.1,1.29,1.85,1.05,.8-.26,1.23-1.02,1.05-1.85-.11-.5-.21-1.01-.29-1.51-.01-.09-.06-.26-.05-.35,.02,.18,.03,.22,.01,.1,0-.06-.02-.12-.02-.18-.03-.26-.06-.51-.08-.77-.09-1-.1-2.01-.06-3.02,.04-.78-.72-1.54-1.5-1.5-.84,.04-1.46,.66-1.5,1.5h0Z"/>
          <path class="cls-12" d="M20.01,165.71c.11,.05,.22,.12,.32,.19l-.3-.23c.12,.1,.23,.21,.33,.33l-.23-.3c.11,.14,.2,.3,.27,.46l-.15-.36c.07,.18,.12,.36,.15,.55l-.05-.4c.02,.17,.02,.33,0,.5l.05-.4c-.02,.16-.06,.31-.12,.45l.15-.36s-.04,.08-.06,.12c-.18,.36-.26,.76-.15,1.16,.1,.35,.36,.73,.69,.9,.35,.18,.77,.28,1.16,.15,.36-.12,.72-.34,.9-.69,.24-.48,.36-.93,.4-1.46,.02-.26-.03-.51-.07-.77-.02-.14-.05-.28-.1-.41-.17-.51-.4-.9-.74-1.31-.25-.29-.57-.55-.92-.71-.17-.11-.36-.17-.56-.18-.2-.04-.4-.04-.6,.03-.35,.1-.73,.36-.9,.69-.18,.35-.28,.77-.15,1.16,.11,.35,.34,.73,.69,.9h0Z"/>
          <path class="cls-12" d="M42.71,177.28v2.04c0,.38,.17,.79,.44,1.06,.14,.15,.3,.25,.48,.31,.18,.09,.37,.14,.58,.13,.39-.02,.79-.14,1.06-.44s.44-.65,.44-1.06v-2.04c0-.38-.17-.79-.44-1.06-.14-.15-.3-.25-.48-.31-.18-.09-.37-.14-.58-.13-.39,.02-.79,.14-1.06,.44s-.44,.65-.44,1.06h0Z"/>
          <path class="cls-12" d="M47.75,178.34l.51,.51c.14,.15,.3,.25,.48,.31,.18,.09,.37,.14,.58,.13,.21,0,.4-.04,.58-.13,.19-.06,.35-.16,.48-.31l.23-.3c.14-.23,.2-.49,.2-.76l-.05-.4c-.07-.25-.2-.47-.39-.66l-.51-.51c-.14-.15-.3-.25-.48-.31-.18-.09-.37-.14-.58-.13-.21,0-.4,.04-.58,.13-.19,.06-.35,.16-.48,.31l-.23,.3c-.14,.23-.2,.49-.2,.76l.05,.4c.07,.25,.2,.47,.39,.66h0Z"/>
          <path class="cls-12" d="M10.85,189.21c-.11-.12-.22-.23-.33-.36-.04-.04-.33-.41-.16-.18-.17-.22-.32-.45-.46-.69-.15-.26-.29-.53-.42-.8-.03-.06-.06-.13-.09-.19,.06,.14,.06,.14,0-.03-.04-.13-.09-.26-.14-.39-.08-.26-.16-.53-.22-.81-.03-.16-.06-.32-.09-.48-.02-.11-.01-.09,0,.05-.01-.09-.02-.18-.03-.28-.02-.28-.03-.55-.03-.83,0-.14,0-.28,.02-.42,0-.06,.07-.62,.02-.29l-1.85,1.05c.16,.06,.16,.06,0-.01,.08,.04,.15,.07,.23,.11,.11,.06,.21,.14,.32,.2-.26-.16,.04,.04,.09,.09,.11,.1,.2,.21,.31,.33,.07,.08,.05,.07-.04-.05,.05,.07,.09,.14,.14,.21,.07,.11,.12,.22,.18,.34-.14-.3,0,.04,.03,.12s.11,.6,.07,.23c.11,.97,.87,1.7,1.9,1.45s1.85-.95,2.5-1.79c.28-.37,.54-.75,.78-1.15,.11-.19,.22-.38,.34-.56,.06-.09,.12-.19,.19-.28,.03-.05,.22-.29,.04-.07,.12-.15,.25-.3,.39-.44,.08-.07,.15-.15,.24-.21-.17,.13-.05,.05,.06-.02,.09-.05,.31-.1,.04-.03,.05-.01,.38-.13,.16-.06-.24,.07,.11-.05,.12,0l-.2-.02,.1,.03c.13,.04,.13,.04,.01,0-.1-.04-.11-.05-.04,0,.17,.03,.14,.12,0-.03,.06,.06,.12,.13,.18,.18,.05,.06,.05,.05-.02-.03-.07-.1-.08-.09,0,.01,.04,.18,0-.01-.03-.1,.09,.28,.01-.24,0-.09,0,.18,.11-.34,.02-.09,.03-.09,.32-.46,.14-.27-.55,.56-.6,1.57,0,2.12s1.54,.6,2.12,0c1.03-1.06,.87-2.63-.1-3.68s-2.42-1.27-3.72-.68c-1.11,.51-1.87,1.56-2.48,2.57-.14,.22-.27,.45-.41,.67-.07,.11-.15,.22-.22,.33-.19,.29,.12-.11-.09,.12-.1,.11-.2,.23-.31,.33-.05,.04-.09,.09-.14,.13,.12-.09,.14-.1,.05-.04-.11,.07-.22,.13-.32,.19-.1,.05-.07,.04,.07-.03-.08,.03-.16,.05-.25,.07l1.9,1.45c-.24-2.08-1.52-3.76-3.52-4.45-.7-.24-1.73,.28-1.85,1.05-.47,3.14,.45,6.31,2.68,8.61,.55,.56,1.58,.59,2.12,0s.58-1.52,0-2.12h0Z"/>
          <path class="cls-6" d="M46.24,163.55c-.58,.04-1.22-.31-.98-.99,.26-.72,1.12-.61,1.74-.53,1.07,.13,2.13,.46,3.21,.39,1.29-.08,2.39-.61,3.16-1.66,.59-.8,.75-1.86,1.34-2.64,.15-.21,.24-.24,.4-.33-.03,.02,.09-.01,.2-.02,.25,0,.58,.1,.88,.3,.66,.44,.94,1.13,.82,2.04-.15,1.09-.81,2.1-1.49,2.92-.52,.62-.61,1.51,0,2.12,.54,.54,1.6,.62,2.12,0,1.75-2.08,3.19-4.99,1.9-7.68-.99-2.09-3.8-3.43-5.95-2.28-1.21,.65-1.69,1.84-2.22,3.02-.16,.35-.32,.76-.61,1-.21,.18-.44,.2-.81,.2-2.18,0-4.54-1.17-6.49,.6-1.12,1.02-1.53,2.72-.98,4.13,.6,1.5,2.14,2.51,3.77,2.39,.81-.06,1.5-.65,1.5-1.5,0-.77-.69-1.56-1.5-1.5h0Z"/>
          <path class="cls-6" d="M82.66,194.35c-1.05,2.12-.72,4.66,.87,6.42,.53,.58,1.59,.58,2.12,0,.57-.62,.56-1.5,0-2.12-.08-.08-.15-.17-.22-.26l.23,.3c-.2-.27-.37-.56-.5-.87l.15,.36c-.15-.36-.25-.72-.3-1.11l.05,.4c-.05-.38-.05-.76,0-1.15l-.05,.4c.05-.34,.14-.66,.26-.97l-.15,.36c.04-.08,.07-.16,.11-.25,.18-.36,.26-.75,.15-1.16-.1-.35-.36-.73-.69-.9-.68-.36-1.68-.21-2.05,.54h0Z"/>
          <path class="cls-6" d="M87.59,197.22s.08,.09,.12,.14l-.23-.3c.11,.14,.2,.3,.27,.46l-.15-.36c.08,.18,.13,.38,.16,.57l-.05-.4c.02,.19,.02,.38,0,.56l.05-.4c-.01,.1-.04,.21-.07,.31-.11,.37-.04,.82,.15,1.16,.09,.17,.22,.32,.39,.42,.14,.13,.31,.22,.51,.27,.38,.09,.81,.07,1.16-.15s.58-.51,.69-.9c.03-.09,.05-.18,.06-.28,.03-.22,.07-.44,.08-.66,0-.09,0-.19-.01-.28-.02-.22-.05-.45-.1-.66-.07-.3-.2-.59-.33-.86s-.35-.53-.55-.77c-.14-.15-.3-.25-.48-.31-.18-.09-.37-.14-.58-.13-.21,0-.4,.04-.58,.13-.19,.06-.35,.16-.48,.31-.26,.29-.46,.66-.44,1.06l.05,.4c.07,.25,.2,.47,.39,.66h0Z"/>
          <path class="cls-6" d="M59.31,196.82c-.5-2.75-1.88-5.32-3.84-7.31-.55-.56-1.58-.59-2.12,0s-.59,1.52,0,2.12c.22,.22,.43,.44,.63,.68,.09,.11,.18,.22,.28,.34,.13,.16-.21-.29,0,0,.04,.06,.09,.12,.13,.18,.36,.5,.68,1.03,.97,1.57,.07,.13,.13,.26,.19,.39,.04,.08,.11,.35,.18,.4-.09-.06-.1-.25,0,0,.03,.07,.05,.13,.08,.2,.05,.14,.1,.27,.15,.41,.2,.6,.36,1.22,.47,1.84,.14,.77,1.12,1.28,1.85,1.05,.83-.27,1.2-1.02,1.05-1.85h0Z"/>
          <path class="cls-6" d="M63.78,196.87c-1.26-4.3-1.16-8.83,.24-13.08,.61-1.84-2.29-2.63-2.89-.8-1.56,4.73-1.64,9.89-.24,14.67,.54,1.85,3.44,1.06,2.89-.8h0Z"/>
          <path class="cls-10" d="M74.51,162.37c2.35,0,4.61-2.07,4.5-4.5s-1.98-4.5-4.5-4.5c-2.35,0-4.61,2.07-4.5,4.5s1.98,4.5,4.5,4.5h0Z"/>
          <path class="cls-10" d="M29.57,189.61c2.35,0,4.61-2.07,4.5-4.5s-1.98-4.5-4.5-4.5c-2.35,0-4.61,2.07-4.5,4.5s1.98,4.5,4.5,4.5h0Z"/>
        </g>
        <g>
          <rect class="cls-9" x="150" y="50" width="100" height="100"/>
          <path class="cls-2" d="M179.4,108.43"/>
          <path class="cls-2" d="M177.87,75.74"/>
          <path class="cls-8" d="M175.75,115.17l-1.44-7.58c-.24-1.26-.48-2.53-.72-3.79-.17-.92-.42-2.02-.06-2.93,.51-1.29,2.27-1.4,3.37-.89,1.74,.81,2.47,2.92,2.84,4.66,.26,1.18,2.22,1.55,2.74,.36,.91-2.08,3.38-6.92,6.2-4.27s2.34,7.53,.77,10.58c-.89,1.71,1.7,3.23,2.59,1.51,2.25-4.34,2.54-11.19-1.64-14.56-1.9-1.53-4.49-1.68-6.5-.28-1.9,1.32-3.1,3.43-4,5.51l2.74,.36c-.54-2.5-1.78-5.11-4.11-6.39-2.06-1.13-4.91-1.02-6.66,.64-2.25,2.12-1.38,5.38-.88,8.03l1.87,9.85c.36,1.89,3.25,1.09,2.89-.8h0Z"/>
          <path class="cls-12" d="M162.58,62.47c-.1,2.19,.11,4.39,.6,6.52,.17,.77,1.1,1.29,1.85,1.05,.8-.26,1.23-1.02,1.05-1.85-.11-.5-.21-1.01-.29-1.51-.01-.09-.06-.26-.05-.35,.02,.18,.03,.22,.01,.1,0-.06-.02-.12-.02-.18-.03-.26-.06-.51-.08-.77-.09-1-.1-2.01-.06-3.02,.04-.78-.72-1.54-1.5-1.5-.84,.04-1.46,.66-1.5,1.5h0Z"/>
          <path class="cls-12" d="M170.01,65.71c.11,.05,.22,.12,.32,.19l-.3-.23c.12,.1,.23,.21,.33,.33l-.23-.3c.11,.14,.2,.3,.27,.46l-.15-.36c.07,.18,.12,.36,.15,.55l-.05-.4c.02,.17,.02,.33,0,.5l.05-.4c-.02,.16-.06,.31-.12,.45l.15-.36s-.04,.08-.06,.12c-.18,.36-.26,.76-.15,1.16,.1,.35,.36,.73,.69,.9,.35,.18,.77,.28,1.16,.15,.36-.12,.72-.34,.9-.69,.24-.48,.36-.93,.4-1.46,.02-.26-.03-.51-.07-.77-.02-.14-.05-.28-.1-.41-.17-.51-.4-.9-.74-1.31-.25-.29-.57-.55-.92-.71-.17-.11-.36-.17-.56-.18-.2-.04-.4-.04-.6,.03-.35,.1-.73,.36-.9,.69-.18,.35-.28,.77-.15,1.16,.11,.35,.34,.73,.69,.9h0Z"/>
          <path class="cls-12" d="M171.3,143.09c-2.26-2.04-3.83-4.78-4.28-7.81-.15-.99-.11-2,1.12-1.87,1.35,.14,2.2,1.64,2.86,2.66s2.48,.99,2.74-.36c.31-1.64,.61-3.36,1.53-4.79,.64-1,1.92-1.94,3.17-1.69,2.43,.48,2.08,4.48,1.92,6.26-.08,.81,.74,1.5,1.5,1.5,.87,0,1.42-.69,1.5-1.5,.32-3.41-.15-8.44-4.34-9.2-2.16-.39-4.38,.63-5.74,2.3-1.48,1.81-2,4.09-2.43,6.33l2.74-.36c-1.15-1.77-2.53-3.66-4.75-4.05s-4.38,.71-4.79,2.98c-.39,2.12,.41,4.51,1.26,6.42,.9,2.01,2.23,3.83,3.87,5.31,1.43,1.29,3.56-.82,2.12-2.12h0Z"/>
          <path class="cls-12" d="M192.71,77.28v2.04c0,.38,.17,.79,.44,1.06,.14,.15,.3,.25,.48,.31,.18,.09,.37,.14,.58,.13,.39-.02,.79-.14,1.06-.44s.44-.65,.44-1.06v-2.04c0-.38-.17-.79-.44-1.06-.14-.15-.3-.25-.48-.31-.18-.09-.37-.14-.58-.13-.39,.02-.79,.14-1.06,.44s-.44,.65-.44,1.06h0Z"/>
          <path class="cls-12" d="M197.75,78.34l.51,.51c.14,.15,.3,.25,.48,.31,.18,.09,.37,.14,.58,.13,.21,0,.4-.04,.58-.13,.19-.06,.35-.16,.48-.31l.23-.3c.14-.23,.2-.49,.2-.76l-.05-.4c-.07-.25-.2-.47-.39-.66l-.51-.51c-.14-.15-.3-.25-.48-.31-.18-.09-.37-.14-.58-.13-.21,0-.4,.04-.58,.13-.19,.06-.35,.16-.48,.31l-.23,.3c-.14,.23-.2,.49-.2,.76l.05,.4c.07,.25,.2,.47,.39,.66h0Z"/>
          <path class="cls-12" d="M160.85,89.21c-.11-.12-.22-.23-.33-.36-.04-.04-.33-.41-.16-.18-.17-.22-.32-.45-.46-.69-.15-.26-.29-.53-.42-.8-.03-.06-.06-.13-.09-.19,.06,.14,.06,.14,0-.03-.04-.13-.09-.26-.14-.39-.08-.26-.16-.53-.22-.81-.03-.16-.06-.32-.09-.48-.02-.11-.01-.09,0,.05-.01-.09-.02-.18-.03-.28-.02-.28-.03-.55-.03-.83,0-.14,0-.28,.02-.42,0-.06,.07-.62,.02-.29l-1.85,1.05c.16,.06,.16,.06,0-.01,.08,.04,.15,.07,.23,.11,.11,.06,.21,.14,.32,.2-.26-.16,.04,.04,.09,.09,.11,.1,.2,.21,.31,.33,.07,.08,.05,.07-.04-.05,.05,.07,.09,.14,.14,.21,.07,.11,.12,.22,.18,.34-.14-.3,0,.04,.03,.12s.11,.6,.07,.23c.11,.97,.87,1.7,1.9,1.45s1.85-.95,2.5-1.79c.28-.37,.54-.75,.78-1.15,.11-.19,.22-.38,.34-.56,.06-.09,.12-.19,.19-.28,.03-.05,.22-.29,.04-.07,.12-.15,.25-.3,.39-.44,.08-.07,.15-.15,.24-.21-.17,.13-.05,.05,.06-.02,.09-.05,.31-.1,.04-.03,.05-.01,.38-.13,.16-.06-.24,.07,.11-.05,.12,0l-.2-.02,.1,.03c.13,.04,.13,.04,.01,0-.1-.04-.11-.05-.04,0,.17,.03,.14,.12,0-.03,.06,.06,.12,.13,.18,.18,.05,.06,.05,.05-.02-.03-.07-.1-.08-.09,0,.01,.04,.18,0-.01-.03-.1,.09,.28,.01-.24,0-.09,0,.18,.11-.34,.02-.09,.03-.09,.32-.46,.14-.27-.55,.56-.6,1.57,0,2.12s1.54,.6,2.12,0c1.03-1.06,.87-2.63-.1-3.68s-2.42-1.27-3.72-.68c-1.11,.51-1.87,1.56-2.48,2.57-.14,.22-.27,.45-.41,.67-.07,.11-.15,.22-.22,.33-.19,.29,.12-.11-.09,.12-.1,.11-.2,.23-.31,.33-.05,.04-.09,.09-.14,.13,.12-.09,.14-.1,.05-.04-.11,.07-.22,.13-.32,.19-.1,.05-.07,.04,.07-.03-.08,.03-.16,.05-.25,.07l1.9,1.45c-.24-2.08-1.52-3.76-3.52-4.45-.7-.24-1.73,.28-1.85,1.05-.47,3.14,.45,6.31,2.68,8.61,.55,.56,1.58,.59,2.12,0s.58-1.52,0-2.12h0Z"/>
          <path class="cls-6" d="M196.24,63.55c-.58,.04-1.22-.31-.98-.99,.26-.72,1.12-.61,1.74-.53,1.07,.13,2.13,.46,3.21,.39,1.29-.08,2.39-.61,3.16-1.66,.59-.8,.75-1.86,1.34-2.64,.15-.21,.24-.24,.4-.33-.03,.02,.09-.01,.2-.02,.25,0,.58,.1,.88,.3,.66,.44,.94,1.13,.82,2.04-.15,1.09-.81,2.1-1.49,2.92-.52,.62-.61,1.51,0,2.12,.54,.54,1.6,.62,2.12,0,1.75-2.08,3.19-4.99,1.9-7.68-.99-2.09-3.8-3.43-5.95-2.28-1.21,.65-1.69,1.84-2.22,3.02-.16,.35-.32,.76-.61,1-.21,.18-.44,.2-.81,.2-2.18,0-4.54-1.17-6.49,.6-1.12,1.02-1.53,2.72-.98,4.13,.6,1.5,2.14,2.51,3.77,2.39,.81-.06,1.5-.65,1.5-1.5,0-.77-.69-1.56-1.5-1.5h0Z"/>
          <path class="cls-6" d="M201.14,142.39c-1-1.56-1.68-3.54-1.44-5.41,.01-.1,.02-.32,.08-.39-.01,.01-.08,.1-.05,.08,.12-.05,.32-.03,.46,.03,.68,.26,1.07,1.26,1.37,1.84,.48,.91,1.66,.9,2.36,.3,1.65-1.41,2.86-3.23,3.62-5.25,.38-1.02,.58-2.07,.7-3.15,.07-.63,.11-1.39,.39-1.93,.1-.18,.21-.17,.1-.19,.09,.02,.24,.16,.35,.28,.62,.73,.82,1.89,1.03,2.78,.57,2.36,.68,4.77,.43,7.18-.08,.81,.75,1.5,1.5,1.5,.88,0,1.42-.69,1.5-1.5,.31-2.96,.05-6-.77-8.86-.62-2.14-2.08-5.03-4.82-4.27-2.29,.63-2.46,3.19-2.72,5.13-.33,2.43-1.58,4.59-3.43,6.17l2.36,.3c-.66-1.25-1.46-2.52-2.82-3.08s-3.08-.32-3.98,.93-.74,3.1-.52,4.56c.24,1.59,.85,3.12,1.71,4.48,1.04,1.62,3.63,.12,2.59-1.51h0Z"/>
          <path class="cls-6" d="M158.06,116.09c-.06,.02-.62,.17-.37,.11-.18-.01-.2,0-.05,.02-.1-.02-.2-.04-.29-.08,.2,.07-.21-.12-.27-.16-.08-.06-.09-.06-.03,0-.09-.07-.17-.14-.25-.22-.54-.52-.96-1.22-1.19-1.89-.12-.34-.24-.76-.29-1.08-.02-.14-.03-.5-.03-.55,0-.06,.04-.49,.05-.29,.12-.12,.12-.12,0,0l.11-.06c-.16,.07-.16,.08,0,.03-.19,.02-.19,.03-.02,.02-.19-.04-.2-.04-.03,0,.16,.05,.15,.05-.03-.01-.11-.1-.31-.48-.26-.24,.17,.95,1.44,1.38,2.2,.9,1.63-1.03,1.65-2.75,1.36-4.46-.06-.34-.12-.67-.18-1.01-.01-.08-.03-.16-.04-.23,.02,.14,.02,.12,0-.07-.01-.15-.02-.31-.03-.46,0-.07,.07-.62,0-.34,.01-.06,.13-.45,.02-.18,.04-.08,.08-.16,.13-.23-.09,.11-.11,.13-.04,.05,.04-.05,.09-.09,.14-.14-.14,.1-.14,.1,0,0,.27-.13,.69-.21,1-.14,.16,.04,.32,.08,.48,.14-.27-.1,.1,.05,.16,.08,.08,.05,.16,.1,.24,.15-.12-.1-.11-.09,.02,.03,.02,.01,.31,.34,.13,.11,1,1.28,.61,3.15,.16,4.63-.57,1.85,2.33,2.64,2.89,.8,.65-2.13,.91-4.6-.25-6.62-1.01-1.74-3.04-2.59-5-2.26s-3.17,2.1-3.08,4.07c.04,.92,.27,1.81,.41,2.72-.04-.29,.02,.27,.02,.32,0,.07,.03,.64,.02,.26-.01,.08-.03,.16-.06,.24,.08-.17,.08-.18,0-.03,.12-.14,.12-.14,0-.02,.14-.09,.13-.09-.02,0l2.2,.9c-.29-1.6-2.19-2.26-3.6-1.78-1.91,.65-2.3,2.71-1.98,4.48,.5,2.8,3.11,6.63,6.43,5.4,.76-.28,1.28-1.02,1.05-1.85-.2-.73-1.08-1.33-1.85-1.05h0Z"/>
          <path class="cls-10" d="M190.47,130.12c2.35,0,4.61-2.07,4.5-4.5s-1.98-4.5-4.5-4.5c-2.35,0-4.61,2.07-4.5,4.5s1.98,4.5,4.5,4.5h0Z"/>
          <path class="cls-10" d="M179.57,89.61c2.35,0,4.61-2.07,4.5-4.5s-1.98-4.5-4.5-4.5c-2.35,0-4.61,2.07-4.5,4.5s1.98,4.5,4.5,4.5h0Z"/>
        </g>
        <g>
          <rect class="cls-9" x="50" y="50" width="100" height="100"/>
          <path class="cls-2" d="M79.4,108.43"/>
          <path class="cls-1" d="M102.38,100.77"/>
          <path class="cls-2" d="M77.87,75.74"/>
          <path class="cls-8" d="M75.75,115.17l-1.44-7.58c-.24-1.26-.48-2.53-.72-3.79-.17-.92-.42-2.02-.06-2.93,.51-1.29,2.27-1.4,3.37-.89,1.74,.81,2.47,2.92,2.84,4.66,.26,1.18,2.22,1.55,2.74,.36,.91-2.08,3.38-6.92,6.2-4.27s2.34,7.53,.77,10.58c-.89,1.71,1.7,3.23,2.59,1.51,2.25-4.34,2.54-11.19-1.64-14.56-1.9-1.53-4.49-1.68-6.5-.28-1.9,1.32-3.1,3.43-4,5.51l2.74,.36c-.54-2.5-1.78-5.11-4.11-6.39-2.06-1.13-4.91-1.02-6.66,.64-2.25,2.12-1.38,5.38-.88,8.03l1.87,9.85c.36,1.89,3.25,1.09,2.89-.8h0Z"/>
          <path class="cls-8" d="M125.25,78.77c.87-.76,.78,.13,.45-.26-.07-.09-.18-.16-.25-.25-.22-.25-.4-.55-.58-.83-.42-.65-.8-1.33-1.12-2.03-.61-1.32-1.05-2.8-1.21-4.25-.08-.76-.14-2.77,1.08-2.79,.82-.01,1.91,1.26,2.54,1.68,1.02,.68,2.28,.95,3.41,.35,1.3-.7,1.76-2.25,2.55-3.41,.65-.97,1.58-1.91,2.81-1.99,1.35-.09,1.75,.88,1.99,2.04,.71,3.38-.02,6.95-1.8,9.89-1,1.65,1.59,3.16,2.59,1.51,2.14-3.52,2.9-7.72,2.18-11.77-.35-1.99-1.25-3.83-3.31-4.47-1.79-.55-3.71-.01-5.15,1.13-.73,.57-1.31,1.27-1.84,2.03-.26,.38-.5,.77-.72,1.17-.2,.36-.38,.89-.68,1.18-.05,.05-.02,.03-.03,.03-.13-.1-.35-.17-.58-.33-.58-.4-1.09-.89-1.69-1.27-1.58-1.02-3.52-.98-4.92,.35-1.6,1.52-1.62,3.77-1.29,5.8,.36,2.21,1.19,4.38,2.35,6.3,1.09,1.79,3.16,4.2,5.32,2.31,1.46-1.27-.67-3.39-2.12-2.12h0Z"/>
          <path class="cls-8" d="M140.48,136.29c-3.28-1.37-5.64-4.53-6.36-7.97-.18-.88-.25-1.8-.18-2.7,.06-.74,.12-.95,.8-.31,.62,.58,.84,1.55,1.17,2.29,.37,.82,.84,1.57,1.55,2.14,.78,.63,2.3,.56,2.51-.66,.52-3.05,1.05-6.1,1.57-9.15,.27-1.56,.49-3.13,.81-4.68,.2-.97,.74-1.51,1.64-.73,.84,.73,.97,2.18,1.09,3.21,.17,1.44,.24,2.89,.22,4.33-.03,3-.49,5.95-1.3,8.85-.52,1.86,2.37,2.66,2.89,.8,1.02-3.65,1.52-7.45,1.39-11.24-.1-2.99-.2-7.3-3.29-8.85-1.25-.62-2.81-.66-3.98,.15-1.4,.96-1.56,2.69-1.83,4.23-.7,4.09-1.41,8.19-2.11,12.28l2.51-.66c-1.01-.82-1.23-2.13-1.83-3.23s-1.58-1.96-2.77-2.32-2.61-.02-3.37,1.07-.75,2.6-.68,3.87c.32,5.4,3.79,10.11,8.74,12.17,.75,.31,1.64-.34,1.85-1.05,.25-.86-.3-1.53-1.05-1.85h0Z"/>
          <path class="cls-8" d="M115.33,114.88c-.18-.27-.34-.54-.49-.82-.07-.12-.13-.25-.19-.37-.03-.07-.24-.46-.06-.13-.27-.5-.4-1.16-.51-1.72-.03-.15-.07-.31-.08-.47,.03,.39,0-.02,0-.08-.03-.32-.04-.64-.04-.95,0-.28,.02-.56,.04-.83,0-.08,.02-.16,.03-.24-.03,.2-.03,.22,0,.04,.03-.16,.06-.31,.09-.47,.16-.77-.23-1.66-1.05-1.85-.75-.17-1.67,.23-1.85,1.05-.61,2.85-.1,5.91,1.52,8.35,.43,.65,1.34,.99,2.05,.54,.65-.42,1-1.35,.54-2.05h0Z"/>
          <path class="cls-8" d="M120.73,111.49v-2.04c0-.38-.17-.79-.44-1.06-.14-.15-.3-.25-.48-.31-.18-.09-.37-.14-.58-.13-.39,.02-.79,.14-1.06,.44s-.44,.65-.44,1.06v2.04c0,.38,.17,.79,.44,1.06,.14,.15,.3,.25,.48,.31,.18,.09,.37,.14,.58,.13,.39-.02,.79-.14,1.06-.44s.44-.65,.44-1.06h0Z"/>
          <path class="cls-12" d="M62.58,62.47c-.1,2.19,.11,4.39,.6,6.52,.17,.77,1.1,1.29,1.85,1.05,.8-.26,1.23-1.02,1.05-1.85-.11-.5-.21-1.01-.29-1.51-.01-.09-.06-.26-.05-.35,.02,.18,.03,.22,.01,.1,0-.06-.02-.12-.02-.18-.03-.26-.06-.51-.08-.77-.09-1-.1-2.01-.06-3.02,.04-.78-.72-1.54-1.5-1.5-.84,.04-1.46,.66-1.5,1.5h0Z"/>
          <path class="cls-12" d="M70.01,65.71c.11,.05,.22,.12,.32,.19l-.3-.23c.12,.1,.23,.21,.33,.33l-.23-.3c.11,.14,.2,.3,.27,.46l-.15-.36c.07,.18,.12,.36,.15,.55l-.05-.4c.02,.17,.02,.33,0,.5l.05-.4c-.02,.16-.06,.31-.12,.45l.15-.36s-.04,.08-.06,.12c-.18,.36-.26,.76-.15,1.16,.1,.35,.36,.73,.69,.9,.35,.18,.77,.28,1.16,.15,.36-.12,.72-.34,.9-.69,.24-.48,.36-.93,.4-1.46,.02-.26-.03-.51-.07-.77-.02-.14-.05-.28-.1-.41-.17-.51-.4-.9-.74-1.31-.25-.29-.57-.55-.92-.71-.17-.11-.36-.17-.56-.18-.2-.04-.4-.04-.6,.03-.35,.1-.73,.36-.9,.69-.18,.35-.28,.77-.15,1.16,.11,.35,.34,.73,.69,.9h0Z"/>
          <path class="cls-12" d="M71.3,143.09c-2.26-2.04-3.83-4.78-4.28-7.81-.15-.99-.11-2,1.12-1.87,1.35,.14,2.2,1.64,2.86,2.66s2.48,.99,2.74-.36c.31-1.64,.61-3.36,1.53-4.79,.64-1,1.92-1.94,3.17-1.69,2.43,.48,2.08,4.48,1.92,6.26-.08,.81,.74,1.5,1.5,1.5,.87,0,1.42-.69,1.5-1.5,.32-3.41-.15-8.44-4.34-9.2-2.16-.39-4.38,.63-5.74,2.3-1.48,1.81-2,4.09-2.43,6.33l2.74-.36c-1.15-1.77-2.53-3.66-4.75-4.05s-4.38,.71-4.79,2.98c-.39,2.12,.41,4.51,1.26,6.42,.9,2.01,2.23,3.83,3.87,5.31,1.43,1.29,3.56-.82,2.12-2.12h0Z"/>
          <path class="cls-12" d="M92.71,77.28v2.04c0,.38,.17,.79,.44,1.06,.14,.15,.3,.25,.48,.31,.18,.09,.37,.14,.58,.13,.39-.02,.79-.14,1.06-.44s.44-.65,.44-1.06v-2.04c0-.38-.17-.79-.44-1.06-.14-.15-.3-.25-.48-.31-.18-.09-.37-.14-.58-.13-.39,.02-.79,.14-1.06,.44s-.44,.65-.44,1.06h0Z"/>
          <path class="cls-12" d="M97.75,78.34l.51,.51c.14,.15,.3,.25,.48,.31,.18,.09,.37,.14,.58,.13,.21,0,.4-.04,.58-.13,.19-.06,.35-.16,.48-.31l.23-.3c.14-.23,.2-.49,.2-.76l-.05-.4c-.07-.25-.2-.47-.39-.66l-.51-.51c-.14-.15-.3-.25-.48-.31-.18-.09-.37-.14-.58-.13-.21,0-.4,.04-.58,.13-.19,.06-.35,.16-.48,.31l-.23,.3c-.14,.23-.2,.49-.2,.76l.05,.4c.07,.25,.2,.47,.39,.66h0Z"/>
          <path class="cls-12" d="M60.85,89.21c-.11-.12-.22-.23-.33-.36-.04-.04-.33-.41-.16-.18-.17-.22-.32-.45-.46-.69-.15-.26-.29-.53-.42-.8-.03-.06-.06-.13-.09-.19,.06,.14,.06,.14,0-.03-.04-.13-.09-.26-.14-.39-.08-.26-.16-.53-.22-.81-.03-.16-.06-.32-.09-.48-.02-.11-.01-.09,0,.05-.01-.09-.02-.18-.03-.28-.02-.28-.03-.55-.03-.83,0-.14,0-.28,.02-.42,0-.06,.07-.62,.02-.29l-1.85,1.05c.16,.06,.16,.06,0-.01,.08,.04,.15,.07,.23,.11,.11,.06,.21,.14,.32,.2-.26-.16,.04,.04,.09,.09,.11,.1,.2,.21,.31,.33,.07,.08,.05,.07-.04-.05,.05,.07,.09,.14,.14,.21,.07,.11,.12,.22,.18,.34-.14-.3,0,.04,.03,.12s.11,.6,.07,.23c.11,.97,.87,1.7,1.9,1.45s1.85-.95,2.5-1.79c.28-.37,.54-.75,.78-1.15,.11-.19,.22-.38,.34-.56,.06-.09,.12-.19,.19-.28,.03-.05,.22-.29,.04-.07,.12-.15,.25-.3,.39-.44,.08-.07,.15-.15,.24-.21-.17,.13-.05,.05,.06-.02,.09-.05,.31-.1,.04-.03,.05-.01,.38-.13,.16-.06-.24,.07,.11-.05,.12,0l-.2-.02,.1,.03c.13,.04,.13,.04,.01,0-.1-.04-.11-.05-.04,0,.17,.03,.14,.12,0-.03,.06,.06,.12,.13,.18,.18,.05,.06,.05,.05-.02-.03-.07-.1-.08-.09,0,.01,.04,.18,0-.01-.03-.1,.09,.28,.01-.24,0-.09,0,.18,.11-.34,.02-.09,.03-.09,.32-.46,.14-.27-.55,.56-.6,1.57,0,2.12s1.54,.6,2.12,0c1.03-1.06,.87-2.63-.1-3.68s-2.42-1.27-3.72-.68c-1.11,.51-1.87,1.56-2.48,2.57-.14,.22-.27,.45-.41,.67-.07,.11-.15,.22-.22,.33-.19,.29,.12-.11-.09,.12-.1,.11-.2,.23-.31,.33-.05,.04-.09,.09-.14,.13,.12-.09,.14-.1,.05-.04-.11,.07-.22,.13-.32,.19-.1,.05-.07,.04,.07-.03-.08,.03-.16,.05-.25,.07l1.9,1.45c-.24-2.08-1.52-3.76-3.52-4.45-.7-.24-1.73,.28-1.85,1.05-.47,3.14,.45,6.31,2.68,8.61,.55,.56,1.58,.59,2.12,0s.58-1.52,0-2.12h0Z"/>
          <path class="cls-6" d="M96.24,63.55c-.58,.04-1.22-.31-.98-.99,.26-.72,1.12-.61,1.74-.53,1.07,.13,2.13,.46,3.21,.39,1.29-.08,2.39-.61,3.16-1.66,.59-.8,.75-1.86,1.34-2.64,.15-.21,.24-.24,.4-.33-.03,.02,.09-.01,.2-.02,.25,0,.58,.1,.88,.3,.66,.44,.94,1.13,.82,2.04-.15,1.09-.81,2.1-1.49,2.92-.52,.62-.61,1.51,0,2.12,.54,.54,1.6,.62,2.12,0,1.75-2.08,3.19-4.99,1.9-7.68-.99-2.09-3.8-3.43-5.95-2.28-1.21,.65-1.69,1.84-2.22,3.02-.16,.35-.32,.76-.61,1-.21,.18-.44,.2-.81,.2-2.18,0-4.54-1.17-6.49,.6-1.12,1.02-1.53,2.72-.98,4.13,.6,1.5,2.14,2.51,3.77,2.39,.81-.06,1.5-.65,1.5-1.5,0-.77-.69-1.56-1.5-1.5h0Z"/>
          <path class="cls-6" d="M101.14,142.39c-1-1.56-1.68-3.54-1.44-5.41,.01-.1,.02-.32,.08-.39-.01,.01-.08,.1-.05,.08,.12-.05,.32-.03,.46,.03,.68,.26,1.07,1.26,1.37,1.84,.48,.91,1.66,.9,2.36,.3,1.65-1.41,2.86-3.23,3.62-5.25,.38-1.02,.58-2.07,.7-3.15,.07-.63,.11-1.39,.39-1.93,.1-.18,.21-.17,.1-.19,.09,.02,.24,.16,.35,.28,.62,.73,.82,1.89,1.03,2.78,.57,2.36,.68,4.77,.43,7.18-.08,.81,.75,1.5,1.5,1.5,.88,0,1.42-.69,1.5-1.5,.31-2.96,.05-6-.77-8.86-.62-2.14-2.08-5.03-4.82-4.27-2.29,.63-2.46,3.19-2.72,5.13-.33,2.43-1.58,4.59-3.43,6.17l2.36,.3c-.66-1.25-1.46-2.52-2.82-3.08s-3.08-.32-3.98,.93-.74,3.1-.52,4.56c.24,1.59,.85,3.12,1.71,4.48,1.04,1.62,3.63,.12,2.59-1.51h0Z"/>
          <path class="cls-6" d="M132.66,94.35c-1.05,2.12-.72,4.66,.87,6.42,.53,.58,1.59,.58,2.12,0,.57-.62,.56-1.5,0-2.12-.08-.08-.15-.17-.22-.26l.23,.3c-.2-.27-.37-.56-.5-.87l.15,.36c-.15-.36-.25-.72-.3-1.11l.05,.4c-.05-.38-.05-.76,0-1.15l-.05,.4c.05-.34,.14-.66,.26-.97l-.15,.36c.04-.08,.07-.16,.11-.25,.18-.36,.26-.75,.15-1.16-.1-.35-.36-.73-.69-.9-.68-.36-1.68-.21-2.05,.54h0Z"/>
          <path class="cls-6" d="M137.59,97.22s.08,.09,.12,.14l-.23-.3c.11,.14,.2,.3,.27,.46l-.15-.36c.08,.18,.13,.38,.16,.57l-.05-.4c.02,.19,.02,.38,0,.56l.05-.4c-.01,.1-.04,.21-.07,.31-.11,.37-.04,.82,.15,1.16,.09,.17,.22,.32,.39,.42,.14,.13,.31,.22,.51,.27,.38,.09,.81,.07,1.16-.15s.58-.51,.69-.9c.03-.09,.05-.18,.06-.28,.03-.22,.07-.44,.08-.66,0-.09,0-.19-.01-.28-.02-.22-.05-.45-.1-.66-.07-.3-.2-.59-.33-.86s-.35-.53-.55-.77c-.14-.15-.3-.25-.48-.31-.18-.09-.37-.14-.58-.13-.21,0-.4,.04-.58,.13-.19,.06-.35,.16-.48,.31-.26,.29-.46,.66-.44,1.06l.05,.4c.07,.25,.2,.47,.39,.66h0Z"/>
          <path class="cls-6" d="M109.31,96.82c-.5-2.75-1.88-5.32-3.84-7.31-.55-.56-1.58-.59-2.12,0s-.59,1.52,0,2.12c.22,.22,.43,.44,.63,.68,.09,.11,.18,.22,.28,.34,.13,.16-.21-.29,0,0,.04,.06,.09,.12,.13,.18,.36,.5,.68,1.03,.97,1.57,.07,.13,.13,.26,.19,.39,.04,.08,.11,.35,.18,.4-.09-.06-.1-.25,0,0,.03,.07,.05,.13,.08,.2,.05,.14,.1,.27,.15,.41,.2,.6,.36,1.22,.47,1.84,.14,.77,1.12,1.28,1.85,1.05,.83-.27,1.2-1.02,1.05-1.85h0Z"/>
          <path class="cls-6" d="M113.78,96.87c-1.26-4.3-1.16-8.83,.24-13.08,.61-1.84-2.29-2.63-2.89-.8-1.56,4.73-1.64,9.89-.24,14.67,.54,1.85,3.44,1.06,2.89-.8h0Z"/>
          <path class="cls-6" d="M58.06,116.09c-.06,.02-.62,.17-.37,.11-.18-.01-.2,0-.05,.02-.1-.02-.2-.04-.29-.08,.2,.07-.21-.12-.27-.16-.08-.06-.09-.06-.03,0-.09-.07-.17-.14-.25-.22-.54-.52-.96-1.22-1.19-1.89-.12-.34-.24-.76-.29-1.08-.02-.14-.03-.5-.03-.55,0-.06,.04-.49,.05-.29,.12-.12,.12-.12,0,0l.11-.06c-.16,.07-.16,.08,0,.03-.19,.02-.19,.03-.02,.02-.19-.04-.2-.04-.03,0,.16,.05,.15,.05-.03-.01-.11-.1-.31-.48-.26-.24,.17,.95,1.44,1.38,2.2,.9,1.63-1.03,1.65-2.75,1.36-4.46-.06-.34-.12-.67-.18-1.01-.01-.08-.03-.16-.04-.23,.02,.14,.02,.12,0-.07-.01-.15-.02-.31-.03-.46,0-.07,.07-.62,0-.34,.01-.06,.13-.45,.02-.18,.04-.08,.08-.16,.13-.23-.09,.11-.11,.13-.04,.05,.04-.05,.09-.09,.14-.14-.14,.1-.14,.1,0,0,.27-.13,.69-.21,1-.14,.16,.04,.32,.08,.48,.14-.27-.1,.1,.05,.16,.08,.08,.05,.16,.1,.24,.15-.12-.1-.11-.09,.02,.03,.02,.01,.31,.34,.13,.11,1,1.28,.61,3.15,.16,4.63-.57,1.85,2.33,2.64,2.89,.8,.65-2.13,.91-4.6-.25-6.62-1.01-1.74-3.04-2.59-5-2.26s-3.17,2.1-3.08,4.07c.04,.92,.27,1.81,.41,2.72-.04-.29,.02,.27,.02,.32,0,.07,.03,.64,.02,.26-.01,.08-.03,.16-.06,.24,.08-.17,.08-.18,0-.03,.12-.14,.12-.14,0-.02,.14-.09,.13-.09-.02,0l2.2,.9c-.29-1.6-2.19-2.26-3.6-1.78-1.91,.65-2.3,2.71-1.98,4.48,.5,2.8,3.11,6.63,6.43,5.4,.76-.28,1.28-1.02,1.05-1.85-.2-.73-1.08-1.33-1.85-1.05h0Z"/>
          <path class="cls-10" d="M124.51,62.37c2.35,0,4.61-2.07,4.5-4.5s-1.98-4.5-4.5-4.5c-2.35,0-4.61,2.07-4.5,4.5s1.98,4.5,4.5,4.5h0Z"/>
          <path class="cls-10" d="M90.47,130.12c2.35,0,4.61-2.07,4.5-4.5s-1.98-4.5-4.5-4.5c-2.35,0-4.61,2.07-4.5,4.5s1.98,4.5,4.5,4.5h0Z"/>
          <path class="cls-10" d="M131.32,117.86c2.35,0,4.61-2.07,4.5-4.5s-1.98-4.5-4.5-4.5c-2.35,0-4.61,2.07-4.5,4.5s1.98,4.5,4.5,4.5h0Z"/>
          <path class="cls-10" d="M79.57,89.61c2.35,0,4.61-2.07,4.5-4.5s-1.98-4.5-4.5-4.5c-2.35,0-4.61,2.07-4.5,4.5s1.98,4.5,4.5,4.5h0Z"/>
        </g>
        <g>
          <rect class="cls-9" x="-50" y="50" width="100" height="100"/>
          <path class="cls-1" d="M2.38,100.77"/>
          <path class="cls-8" d="M25.25,78.77c.87-.76,.78,.13,.45-.26-.07-.09-.18-.16-.25-.25-.22-.25-.4-.55-.58-.83-.42-.65-.8-1.33-1.12-2.03-.61-1.32-1.05-2.8-1.21-4.25-.08-.76-.14-2.77,1.08-2.79,.82-.01,1.91,1.26,2.54,1.68,1.02,.68,2.28,.95,3.41,.35,1.3-.7,1.76-2.25,2.55-3.41,.65-.97,1.58-1.91,2.81-1.99,1.35-.09,1.75,.88,1.99,2.04,.71,3.38-.02,6.95-1.8,9.89-1,1.65,1.59,3.16,2.59,1.51,2.14-3.52,2.9-7.72,2.18-11.77-.35-1.99-1.25-3.83-3.31-4.47-1.79-.55-3.71-.01-5.15,1.13-.73,.57-1.31,1.27-1.84,2.03-.26,.38-.5,.77-.72,1.17-.2,.36-.38,.89-.68,1.18-.05,.05-.02,.03-.03,.03-.13-.1-.35-.17-.58-.33-.58-.4-1.09-.89-1.69-1.27-1.58-1.02-3.52-.98-4.92,.35-1.6,1.52-1.62,3.77-1.29,5.8,.36,2.21,1.19,4.38,2.35,6.3,1.09,1.79,3.16,4.2,5.32,2.31,1.46-1.27-.67-3.39-2.12-2.12h0Z"/>
          <path class="cls-8" d="M40.48,136.29c-3.28-1.37-5.64-4.53-6.36-7.97-.18-.88-.25-1.8-.18-2.7,.06-.74,.12-.95,.8-.31,.62,.58,.84,1.55,1.17,2.29,.37,.82,.84,1.57,1.55,2.14,.78,.63,2.3,.56,2.51-.66,.52-3.05,1.05-6.1,1.57-9.15,.27-1.56,.49-3.13,.81-4.68,.2-.97,.74-1.51,1.64-.73,.84,.73,.97,2.18,1.09,3.21,.17,1.44,.24,2.89,.22,4.33-.03,3-.49,5.95-1.3,8.85-.52,1.86,2.37,2.66,2.89,.8,1.02-3.65,1.52-7.45,1.39-11.24-.1-2.99-.2-7.3-3.29-8.85-1.25-.62-2.81-.66-3.98,.15-1.4,.96-1.56,2.69-1.83,4.23-.7,4.09-1.41,8.19-2.11,12.28l2.51-.66c-1.01-.82-1.23-2.13-1.83-3.23s-1.58-1.96-2.77-2.32-2.61-.02-3.37,1.07-.75,2.6-.68,3.87c.32,5.4,3.79,10.11,8.74,12.17,.75,.31,1.64-.34,1.85-1.05,.25-.86-.3-1.53-1.05-1.85h0Z"/>
          <path class="cls-8" d="M15.33,114.88c-.18-.27-.34-.54-.49-.82-.07-.12-.13-.25-.19-.37-.03-.07-.24-.46-.06-.13-.27-.5-.4-1.16-.51-1.72-.03-.15-.07-.31-.08-.47,.03,.39,0-.02,0-.08-.03-.32-.04-.64-.04-.95,0-.28,.02-.56,.04-.83,0-.08,.02-.16,.03-.24-.03,.2-.03,.22,0,.04,.03-.16,.06-.31,.09-.47,.16-.77-.23-1.66-1.05-1.85-.75-.17-1.67,.23-1.85,1.05-.61,2.85-.1,5.91,1.52,8.35,.43,.65,1.34,.99,2.05,.54,.65-.42,1-1.35,.54-2.05h0Z"/>
          <path class="cls-8" d="M20.73,111.49v-2.04c0-.38-.17-.79-.44-1.06-.14-.15-.3-.25-.48-.31-.18-.09-.37-.14-.58-.13-.39,.02-.79,.14-1.06,.44s-.44,.65-.44,1.06v2.04c0,.38,.17,.79,.44,1.06,.14,.15,.3,.25,.48,.31,.18,.09,.37,.14,.58,.13,.39-.02,.79-.14,1.06-.44s.44-.65,.44-1.06h0Z"/>
          <path class="cls-12" d="M-2.25,78.34l.51,.51c.14,.15,.3,.25,.48,.31,.18,.09,.37,.14,.58,.13,.21,0,.4-.04,.58-.13,.19-.06,.35-.16,.48-.31l.23-.3c.14-.23,.2-.49,.2-.76l-.05-.4c-.07-.25-.2-.47-.39-.66l-.51-.51c-.14-.15-.3-.25-.48-.31-.18-.09-.37-.14-.58-.13-.21,0-.4,.04-.58,.13-.19,.06-.35,.16-.48,.31l-.23,.3c-.14,.23-.2,.49-.2,.76l.05,.4c.07,.25,.2,.47,.39,.66h0Z"/>
          <path class="cls-6" d="M-3.76,63.55c-.58,.04-1.22-.31-.98-.99,.26-.72,1.12-.61,1.74-.53,1.07,.13,2.13,.46,3.21,.39,1.29-.08,2.39-.61,3.16-1.66,.59-.8,.75-1.86,1.34-2.64,.15-.21,.24-.24,.4-.33-.03,.02,.09-.01,.2-.02,.25,0,.58,.1,.88,.3,.66,.44,.94,1.13,.82,2.04-.15,1.09-.81,2.1-1.49,2.92-.52,.62-.61,1.51,0,2.12,.54,.54,1.6,.62,2.12,0,1.75-2.08,3.19-4.99,1.9-7.68-.99-2.09-3.8-3.43-5.95-2.28-1.21,.65-1.69,1.84-2.22,3.02-.16,.35-.32,.76-.61,1-.21,.18-.44,.2-.81,.2-2.18,0-4.54-1.17-6.49,.6-1.12,1.02-1.53,2.72-.98,4.13,.6,1.5,2.14,2.51,3.77,2.39,.81-.06,1.5-.65,1.5-1.5,0-.77-.69-1.56-1.5-1.5h0Z"/>
          <path class="cls-6" d="M1.14,142.39c-1-1.56-1.68-3.54-1.44-5.41,.01-.1,.02-.32,.08-.39-.01,.01-.08,.1-.05,.08,.12-.05,.32-.03,.46,.03,.68,.26,1.07,1.26,1.37,1.84,.48,.91,1.66,.9,2.36,.3,1.65-1.41,2.86-3.23,3.62-5.25,.38-1.02,.58-2.07,.7-3.15,.07-.63,.11-1.39,.39-1.93,.1-.18,.21-.17,.1-.19,.09,.02,.24,.16,.35,.28,.62,.73,.82,1.89,1.03,2.78,.57,2.36,.68,4.77,.43,7.18-.08,.81,.75,1.5,1.5,1.5,.88,0,1.42-.69,1.5-1.5,.31-2.96,.05-6-.77-8.86-.62-2.14-2.08-5.03-4.82-4.27-2.29,.63-2.46,3.19-2.72,5.13-.33,2.43-1.58,4.59-3.43,6.17l2.36,.3c-.66-1.25-1.46-2.52-2.82-3.08s-3.08-.32-3.98,.93-.74,3.1-.52,4.56c.24,1.59,.85,3.12,1.71,4.48,1.04,1.62,3.63,.12,2.59-1.51h0Z"/>
          <path class="cls-6" d="M32.66,94.35c-1.05,2.12-.72,4.66,.87,6.42,.53,.58,1.59,.58,2.12,0,.57-.62,.56-1.5,0-2.12-.08-.08-.15-.17-.22-.26l.23,.3c-.2-.27-.37-.56-.5-.87l.15,.36c-.15-.36-.25-.72-.3-1.11l.05,.4c-.05-.38-.05-.76,0-1.15l-.05,.4c.05-.34,.14-.66,.26-.97l-.15,.36c.04-.08,.07-.16,.11-.25,.18-.36,.26-.75,.15-1.16-.1-.35-.36-.73-.69-.9-.68-.36-1.68-.21-2.05,.54h0Z"/>
          <path class="cls-6" d="M37.59,97.22s.08,.09,.12,.14l-.23-.3c.11,.14,.2,.3,.27,.46l-.15-.36c.08,.18,.13,.38,.16,.57l-.05-.4c.02,.19,.02,.38,0,.56l.05-.4c-.01,.1-.04,.21-.07,.31-.11,.37-.04,.82,.15,1.16,.09,.17,.22,.32,.39,.42,.14,.13,.31,.22,.51,.27,.38,.09,.81,.07,1.16-.15s.58-.51,.69-.9c.03-.09,.05-.18,.06-.28,.03-.22,.07-.44,.08-.66,0-.09,0-.19-.01-.28-.02-.22-.05-.45-.1-.66-.07-.3-.2-.59-.33-.86s-.35-.53-.55-.77c-.14-.15-.3-.25-.48-.31-.18-.09-.37-.14-.58-.13-.21,0-.4,.04-.58,.13-.19,.06-.35,.16-.48,.31-.26,.29-.46,.66-.44,1.06l.05,.4c.07,.25,.2,.47,.39,.66h0Z"/>
          <path class="cls-6" d="M9.31,96.82c-.5-2.75-1.88-5.32-3.84-7.31-.55-.56-1.58-.59-2.12,0s-.59,1.52,0,2.12c.22,.22,.43,.44,.63,.68,.09,.11,.18,.22,.28,.34,.13,.16-.21-.29,0,0,.04,.06,.09,.12,.13,.18,.36,.5,.68,1.03,.97,1.57,.07,.13,.13,.26,.19,.39,.04,.08,.11,.35,.18,.4-.09-.06-.1-.25,0,0,.03,.07,.05,.13,.08,.2,.05,.14,.1,.27,.15,.41,.2,.6,.36,1.22,.47,1.84,.14,.77,1.12,1.28,1.85,1.05,.83-.27,1.2-1.02,1.05-1.85h0Z"/>
          <path class="cls-6" d="M13.78,96.87c-1.26-4.3-1.16-8.83,.24-13.08,.61-1.84-2.29-2.63-2.89-.8-1.56,4.73-1.64,9.89-.24,14.67,.54,1.85,3.44,1.06,2.89-.8h0Z"/>
          <path class="cls-10" d="M24.51,62.37c2.35,0,4.61-2.07,4.5-4.5s-1.98-4.5-4.5-4.5c-2.35,0-4.61,2.07-4.5,4.5s1.98,4.5,4.5,4.5h0Z"/>
          <path class="cls-10" d="M31.32,117.86c2.35,0,4.61-2.07,4.5-4.5s-1.98-4.5-4.5-4.5c-2.35,0-4.61,2.07-4.5,4.5s1.98,4.5,4.5,4.5h0Z"/>
        </g>
        <g>
          <rect class="cls-9" x="100" y="-50" width="100" height="100"/>
          <path class="cls-2" d="M129.4,8.43"/>
          <path class="cls-1" d="M152.38,.77"/>
          <path class="cls-8" d="M125.75,15.17l-1.44-7.58c-.24-1.26-.48-2.53-.72-3.79-.17-.92-.42-2.02-.06-2.93,.51-1.29,2.27-1.4,3.37-.89,1.74,.81,2.47,2.92,2.84,4.66,.26,1.18,2.22,1.55,2.74,.36,.91-2.08,3.38-6.92,6.2-4.27s2.34,7.53,.77,10.58c-.89,1.71,1.7,3.23,2.59,1.51,2.25-4.34,2.54-11.19-1.64-14.56-1.9-1.53-4.49-1.68-6.5-.28-1.9,1.32-3.1,3.43-4,5.51l2.74,.36c-.54-2.5-1.78-5.11-4.11-6.39-2.06-1.13-4.91-1.02-6.66,.64-2.25,2.12-1.38,5.38-.88,8.03l1.87,9.85c.36,1.89,3.25,1.09,2.89-.8h0Z"/>
          <path class="cls-8" d="M190.48,36.29c-3.28-1.37-5.64-4.53-6.36-7.97-.18-.88-.25-1.8-.18-2.7,.06-.74,.12-.95,.8-.31,.62,.58,.84,1.55,1.17,2.29,.37,.82,.84,1.57,1.55,2.14,.78,.63,2.3,.56,2.51-.66,.52-3.05,1.05-6.1,1.57-9.15,.27-1.56,.49-3.13,.81-4.68,.2-.97,.74-1.51,1.64-.73,.84,.73,.97,2.18,1.09,3.21,.17,1.44,.24,2.89,.22,4.33-.03,3-.49,5.95-1.3,8.85-.52,1.86,2.37,2.66,2.89,.8,1.02-3.65,1.52-7.45,1.39-11.24-.1-2.99-.2-7.3-3.29-8.85-1.25-.62-2.81-.66-3.98,.15-1.4,.96-1.56,2.69-1.83,4.23-.7,4.09-1.41,8.19-2.11,12.28l2.51-.66c-1.01-.82-1.23-2.13-1.83-3.23s-1.58-1.96-2.77-2.32-2.61-.02-3.37,1.07-.75,2.6-.68,3.87c.32,5.4,3.79,10.11,8.74,12.17,.75,.31,1.64-.34,1.85-1.05,.25-.86-.3-1.53-1.05-1.85h0Z"/>
          <path class="cls-8" d="M165.33,14.88c-.18-.27-.34-.54-.49-.82-.07-.12-.13-.25-.19-.37-.03-.07-.24-.46-.06-.13-.27-.5-.4-1.16-.51-1.72-.03-.15-.07-.31-.08-.47,.03,.39,0-.02,0-.08-.03-.32-.04-.64-.04-.95,0-.28,.02-.56,.04-.83,0-.08,.02-.16,.03-.24-.03,.2-.03,.22,0,.04,.03-.16,.06-.31,.09-.47,.16-.77-.23-1.66-1.05-1.85-.75-.17-1.67,.23-1.85,1.05-.61,2.85-.1,5.91,1.52,8.35,.43,.65,1.34,.99,2.05,.54,.65-.42,1-1.35,.54-2.05h0Z"/>
          <path class="cls-8" d="M170.73,11.49v-2.04c0-.38-.17-.79-.44-1.06-.14-.15-.3-.25-.48-.31-.18-.09-.37-.14-.58-.13-.39,.02-.79,.14-1.06,.44s-.44,.65-.44,1.06v2.04c0,.38,.17,.79,.44,1.06,.14,.15,.3,.25,.48,.31,.18,.09,.37,.14,.58,.13,.39-.02,.79-.14,1.06-.44s.44-.65,.44-1.06h0Z"/>
          <path class="cls-12" d="M121.3,43.09c-2.26-2.04-3.83-4.78-4.28-7.81-.15-.99-.11-2,1.12-1.87,1.35,.14,2.2,1.64,2.86,2.66s2.48,.99,2.74-.36c.31-1.64,.61-3.36,1.53-4.79,.64-1,1.92-1.94,3.17-1.69,2.43,.48,2.08,4.48,1.92,6.26-.08,.81,.74,1.5,1.5,1.5,.87,0,1.42-.69,1.5-1.5,.32-3.41-.15-8.44-4.34-9.2-2.16-.39-4.38,.63-5.74,2.3-1.48,1.81-2,4.09-2.43,6.33l2.74-.36c-1.15-1.77-2.53-3.66-4.75-4.05s-4.38,.71-4.79,2.98c-.39,2.12,.41,4.51,1.26,6.42,.9,2.01,2.23,3.83,3.87,5.31,1.43,1.29,3.56-.82,2.12-2.12h0Z"/>
          <path class="cls-6" d="M151.14,42.39c-1-1.56-1.68-3.54-1.44-5.41,.01-.1,.02-.32,.08-.39-.01,.01-.08,.1-.05,.08,.12-.05,.32-.03,.46,.03,.68,.26,1.07,1.26,1.37,1.84,.48,.91,1.66,.9,2.36,.3,1.65-1.41,2.86-3.23,3.62-5.25,.38-1.02,.58-2.07,.7-3.15,.07-.63,.11-1.39,.39-1.93,.1-.18,.21-.17,.1-.19,.09,.02,.24,.16,.35,.28,.62,.73,.82,1.89,1.03,2.78,.57,2.36,.68,4.77,.43,7.18-.08,.81,.75,1.5,1.5,1.5,.88,0,1.42-.69,1.5-1.5,.31-2.96,.05-6-.77-8.86-.62-2.14-2.08-5.03-4.82-4.27-2.29,.63-2.46,3.19-2.72,5.13-.33,2.43-1.58,4.59-3.43,6.17l2.36,.3c-.66-1.25-1.46-2.52-2.82-3.08s-3.08-.32-3.98,.93-.74,3.1-.52,4.56c.24,1.59,.85,3.12,1.71,4.48,1.04,1.62,3.63,.12,2.59-1.51h0Z"/>
          <path class="cls-6" d="M182.66-5.65c-1.05,2.12-.72,4.66,.87,6.42,.53,.58,1.59,.58,2.12,0,.57-.62,.56-1.5,0-2.12-.08-.08-.15-.17-.22-.26l.23,.3c-.2-.27-.37-.56-.5-.87l.15,.36c-.15-.36-.25-.72-.3-1.11l.05,.4c-.05-.38-.05-.76,0-1.15l-.05,.4c.05-.34,.14-.66,.26-.97l-.15,.36c.04-.08,.07-.16,.11-.25,.18-.36,.26-.75,.15-1.16-.1-.35-.36-.73-.69-.9-.68-.36-1.68-.21-2.05,.54h0Z"/>
          <path class="cls-6" d="M108.06,16.09c-.06,.02-.62,.17-.37,.11-.18-.01-.2,0-.05,.02-.1-.02-.2-.04-.29-.08,.2,.07-.21-.12-.27-.16-.08-.06-.09-.06-.03,0-.09-.07-.17-.14-.25-.22-.54-.52-.96-1.22-1.19-1.89-.12-.34-.24-.76-.29-1.08-.02-.14-.03-.5-.03-.55,0-.06,.04-.49,.05-.29,.12-.12,.12-.12,0,0l.11-.06c-.16,.07-.16,.08,0,.03-.19,.02-.19,.03-.02,.02-.19-.04-.2-.04-.03,0,.16,.05,.15,.05-.03-.01-.11-.1-.31-.48-.26-.24,.17,.95,1.44,1.38,2.2,.9,1.63-1.03,1.65-2.75,1.36-4.46-.06-.34-.12-.67-.18-1.01-.01-.08-.03-.16-.04-.23,.02,.14,.02,.12,0-.07-.01-.15-.02-.31-.03-.46,0-.07,.07-.62,0-.34,.01-.06,.13-.45,.02-.18,.04-.08,.08-.16,.13-.23-.09,.11-.11,.13-.04,.05,.04-.05,.09-.09,.14-.14-.14,.1-.14,.1,0,0,.27-.13,.69-.21,1-.14,.16,.04,.32,.08,.48,.14-.27-.1,.1,.05,.16,.08,.08,.05,.16,.1,.24,.15-.12-.1-.11-.09,.02,.03,.02,.01,.31,.34,.13,.11,1,1.28,.61,3.15,.16,4.63-.57,1.85,2.33,2.64,2.89,.8,.65-2.13,.91-4.6-.25-6.62-1.01-1.74-3.04-2.59-5-2.26s-3.17,2.1-3.08,4.07c.04,.92,.27,1.81,.41,2.72-.04-.29,.02,.27,.02,.32,0,.07,.03,.64,.02,.26-.01,.08-.03,.16-.06,.24,.08-.17,.08-.18,0-.03,.12-.14,.12-.14,0-.02,.14-.09,.13-.09-.02,0l2.2,.9c-.29-1.6-2.19-2.26-3.6-1.78-1.91,.65-2.3,2.71-1.98,4.48,.5,2.8,3.11,6.63,6.43,5.4,.76-.28,1.28-1.02,1.05-1.85-.2-.73-1.08-1.33-1.85-1.05h0Z"/>
          <path class="cls-10" d="M140.47,30.12c2.35,0,4.61-2.07,4.5-4.5s-1.98-4.5-4.5-4.5c-2.35,0-4.61,2.07-4.5,4.5s1.98,4.5,4.5,4.5h0Z"/>
          <path class="cls-10" d="M181.32,17.86c2.35,0,4.61-2.07,4.5-4.5s-1.98-4.5-4.5-4.5c-2.35,0-4.61,2.07-4.5,4.5s1.98,4.5,4.5,4.5h0Z"/>
        </g>
        <g>
          <rect class="cls-9" x="0" y="-50" width="100" height="100"/>
          <path class="cls-2" d="M29.4,8.43"/>
          <path class="cls-1" d="M52.38,.77"/>
          <path class="cls-8" d="M25.75,15.17l-1.44-7.58c-.24-1.26-.48-2.53-.72-3.79-.17-.92-.42-2.02-.06-2.93,.51-1.29,2.27-1.4,3.37-.89,1.74,.81,2.47,2.92,2.84,4.66,.26,1.18,2.22,1.55,2.74,.36,.91-2.08,3.38-6.92,6.2-4.27s2.34,7.53,.77,10.58c-.89,1.71,1.7,3.23,2.59,1.51,2.25-4.34,2.54-11.19-1.64-14.56-1.9-1.53-4.49-1.68-6.5-.28-1.9,1.32-3.1,3.43-4,5.51l2.74,.36c-.54-2.5-1.78-5.11-4.11-6.39-2.06-1.13-4.91-1.02-6.66,.64-2.25,2.12-1.38,5.38-.88,8.03l1.87,9.85c.36,1.89,3.25,1.09,2.89-.8h0Z"/>
          <path class="cls-8" d="M90.48,36.29c-3.28-1.37-5.64-4.53-6.36-7.97-.18-.88-.25-1.8-.18-2.7,.06-.74,.12-.95,.8-.31,.62,.58,.84,1.55,1.17,2.29,.37,.82,.84,1.57,1.55,2.14,.78,.63,2.3,.56,2.51-.66,.52-3.05,1.05-6.1,1.57-9.15,.27-1.56,.49-3.13,.81-4.68,.2-.97,.74-1.51,1.64-.73,.84,.73,.97,2.18,1.09,3.21,.17,1.44,.24,2.89,.22,4.33-.03,3-.49,5.95-1.3,8.85-.52,1.86,2.37,2.66,2.89,.8,1.02-3.65,1.52-7.45,1.39-11.24-.1-2.99-.2-7.3-3.29-8.85-1.25-.62-2.81-.66-3.98,.15-1.4,.96-1.56,2.69-1.83,4.23-.7,4.09-1.41,8.19-2.11,12.28l2.51-.66c-1.01-.82-1.23-2.13-1.83-3.23s-1.58-1.96-2.77-2.32-2.61-.02-3.37,1.07-.75,2.6-.68,3.87c.32,5.4,3.79,10.11,8.74,12.17,.75,.31,1.64-.34,1.85-1.05,.25-.86-.3-1.53-1.05-1.85h0Z"/>
          <path class="cls-8" d="M65.33,14.88c-.18-.27-.34-.54-.49-.82-.07-.12-.13-.25-.19-.37-.03-.07-.24-.46-.06-.13-.27-.5-.4-1.16-.51-1.72-.03-.15-.07-.31-.08-.47,.03,.39,0-.02,0-.08-.03-.32-.04-.64-.04-.95,0-.28,.02-.56,.04-.83,0-.08,.02-.16,.03-.24-.03,.2-.03,.22,0,.04,.03-.16,.06-.31,.09-.47,.16-.77-.23-1.66-1.05-1.85-.75-.17-1.67,.23-1.85,1.05-.61,2.85-.1,5.91,1.52,8.35,.43,.65,1.34,.99,2.05,.54,.65-.42,1-1.35,.54-2.05h0Z"/>
          <path class="cls-8" d="M70.73,11.49v-2.04c0-.38-.17-.79-.44-1.06-.14-.15-.3-.25-.48-.31-.18-.09-.37-.14-.58-.13-.39,.02-.79,.14-1.06,.44s-.44,.65-.44,1.06v2.04c0,.38,.17,.79,.44,1.06,.14,.15,.3,.25,.48,.31,.18,.09,.37,.14,.58,.13,.39-.02,.79-.14,1.06-.44s.44-.65,.44-1.06h0Z"/>
          <path class="cls-12" d="M21.3,43.09c-2.26-2.04-3.83-4.78-4.28-7.81-.15-.99-.11-2,1.12-1.87,1.35,.14,2.2,1.64,2.86,2.66s2.48,.99,2.74-.36c.31-1.64,.61-3.36,1.53-4.79,.64-1,1.92-1.94,3.17-1.69,2.43,.48,2.08,4.48,1.92,6.26-.08,.81,.74,1.5,1.5,1.5,.87,0,1.42-.69,1.5-1.5,.32-3.41-.15-8.44-4.34-9.2-2.16-.39-4.38,.63-5.74,2.3-1.48,1.81-2,4.09-2.43,6.33l2.74-.36c-1.15-1.77-2.53-3.66-4.75-4.05s-4.38,.71-4.79,2.98c-.39,2.12,.41,4.51,1.26,6.42,.9,2.01,2.23,3.83,3.87,5.31,1.43,1.29,3.56-.82,2.12-2.12h0Z"/>
          <path class="cls-6" d="M51.14,42.39c-1-1.56-1.68-3.54-1.44-5.41,.01-.1,.02-.32,.08-.39-.01,.01-.08,.1-.05,.08,.12-.05,.32-.03,.46,.03,.68,.26,1.07,1.26,1.37,1.84,.48,.91,1.66,.9,2.36,.3,1.65-1.41,2.86-3.23,3.62-5.25,.38-1.02,.58-2.07,.7-3.15,.07-.63,.11-1.39,.39-1.93,.1-.18,.21-.17,.1-.19,.09,.02,.24,.16,.35,.28,.62,.73,.82,1.89,1.03,2.78,.57,2.36,.68,4.77,.43,7.18-.08,.81,.75,1.5,1.5,1.5,.88,0,1.42-.69,1.5-1.5,.31-2.96,.05-6-.77-8.86-.62-2.14-2.08-5.03-4.82-4.27-2.29,.63-2.46,3.19-2.72,5.13-.33,2.43-1.58,4.59-3.43,6.17l2.36,.3c-.66-1.25-1.46-2.52-2.82-3.08s-3.08-.32-3.98,.93-.74,3.1-.52,4.56c.24,1.59,.85,3.12,1.71,4.48,1.04,1.62,3.63,.12,2.59-1.51h0Z"/>
          <path class="cls-6" d="M82.66-5.65c-1.05,2.12-.72,4.66,.87,6.42,.53,.58,1.59,.58,2.12,0,.57-.62,.56-1.5,0-2.12-.08-.08-.15-.17-.22-.26l.23,.3c-.2-.27-.37-.56-.5-.87l.15,.36c-.15-.36-.25-.72-.3-1.11l.05,.4c-.05-.38-.05-.76,0-1.15l-.05,.4c.05-.34,.14-.66,.26-.97l-.15,.36c.04-.08,.07-.16,.11-.25,.18-.36,.26-.75,.15-1.16-.1-.35-.36-.73-.69-.9-.68-.36-1.68-.21-2.05,.54h0Z"/>
          <path class="cls-6" d="M8.06,16.09c-.06,.02-.62,.17-.37,.11-.18-.01-.2,0-.05,.02-.1-.02-.2-.04-.29-.08,.2,.07-.21-.12-.27-.16-.08-.06-.09-.06-.03,0-.09-.07-.17-.14-.25-.22-.54-.52-.96-1.22-1.19-1.89-.12-.34-.24-.76-.29-1.08-.02-.14-.03-.5-.03-.55,0-.06,.04-.49,.05-.29,.12-.12,.12-.12,0,0l.11-.06c-.16,.07-.16,.08,0,.03-.19,.02-.19,.03-.02,.02-.19-.04-.2-.04-.03,0,.16,.05,.15,.05-.03-.01-.11-.1-.31-.48-.26-.24,.17,.95,1.44,1.38,2.2,.9,1.63-1.03,1.65-2.75,1.36-4.46-.06-.34-.12-.67-.18-1.01-.01-.08-.03-.16-.04-.23,.02,.14,.02,.12,0-.07-.01-.15-.02-.31-.03-.46,0-.07,.07-.62,0-.34,.01-.06,.13-.45,.02-.18,.04-.08,.08-.16,.13-.23-.09,.11-.11,.13-.04,.05,.04-.05,.09-.09,.14-.14-.14,.1-.14,.1,0,0,.27-.13,.69-.21,1-.14,.16,.04,.32,.08,.48,.14-.27-.1,.1,.05,.16,.08,.08,.05,.16,.1,.24,.15-.12-.1-.11-.09,.02,.03,.02,.01,.31,.34,.13,.11,1,1.28,.61,3.15,.16,4.63-.57,1.85,2.33,2.64,2.89,.8,.65-2.13,.91-4.6-.25-6.62-1.01-1.74-3.04-2.59-5-2.26s-3.17,2.1-3.08,4.07c.04,.92,.27,1.81,.41,2.72-.04-.29,.02,.27,.02,.32,0,.07,.03,.64,.02,.26-.01,.08-.03,.16-.06,.24,.08-.17,.08-.18,0-.03,.12-.14,.12-.14,0-.02,.14-.09,.13-.09-.02,0l2.2,.9c-.29-1.6-2.19-2.26-3.6-1.78-1.91,.65-2.3,2.71-1.98,4.48,.5,2.8,3.11,6.63,6.43,5.4,.76-.28,1.28-1.02,1.05-1.85-.2-.73-1.08-1.33-1.85-1.05h0Z"/>
          <path class="cls-10" d="M40.47,30.12c2.35,0,4.61-2.07,4.5-4.5s-1.98-4.5-4.5-4.5c-2.35,0-4.61,2.07-4.5,4.5s1.98,4.5,4.5,4.5h0Z"/>
          <path class="cls-10" d="M81.32,17.86c2.35,0,4.61-2.07,4.5-4.5s-1.98-4.5-4.5-4.5c-2.35,0-4.61,2.07-4.5,4.5s1.98,4.5,4.5,4.5h0Z"/>
        </g>
      </g>
    </pattern>
  </defs>
  <rect class="cls-7" width="1150" height="850" rx="29.09" ry="29.09"/>
  <rect class="cls-11" x="23.05" y="24.8" width="1114.06" height="810.55" rx="23.04" ry="23.04"/>
  <rect class="cls-3" x="14.88" y="16.65" width="1114.06" height="810.55" rx="16.47" ry="16.47"/>
  <rect class="cls-4" x="14.88" y="16.63" width="1114.06" height="810.55" rx="16.47" ry="16.47"/>
</svg>