<?xml version="1.0" encoding="UTF-8"?>
<svg id="Capa_1" data-name="Capa 1" xmlns="http://www.w3.org/2000/svg" viewBox="0 0 709.51 151.78">
  <defs>
    <style>
      .cls-1 {
        fill: #fd0;
        stroke: #000;
        stroke-miterlimit: 10;
      }
    </style>
  </defs>
  <path class="cls-1" d="M57.41,57.41H.5V.5H57.41v7.69H16.45V25.11H49.23v7.69H16.45v16.92H57.41v7.69Z"/>
  <path class="cls-1" d="M122.08,57.41h-15.95v-8.26h-8.18v-8.18h-8.34l-.16-8.01h-8.42v24.45h-15.87V.5h15.87V8.76h8.26v8.18h8.3l.08,8.18h8.46V.5h15.95V57.41Z"/>
  <path class="cls-1" d="M186.76,16.37h-15.95V8.19h-25.09V49.72h25.09v-8.34h15.95v7.85h-8.18v8.18h-40.64v-8.18h-8.09V8.68h8.09V.5h40.64V8.68h8.18v7.69Z"/>
  <path class="cls-1" d="M251.44,49.23h-8.09v8.18h-40.64v-8.26h-8.18V.5h15.95V49.72h25.09V.5h15.87V49.23Z"/>
  <path class="cls-1" d="M316.11,57.41h-56.91V.5h56.91v7.69h-40.96V25.11h32.78v7.69h-32.78v16.92h40.96v7.69Z"/>
  <path class="cls-1" d="M380.79,57.41h-15.95v-8.26h-8.18v-8.18h-8.34l-.16-8.01h-8.42v24.45h-15.87V.5h15.87V8.76h8.26v8.18h8.3l.08,8.18h8.46V.5h15.95V57.41Z"/>
  <path class="cls-1" d="M445.47,8.19h-16.43V57.41h-24.12V8.19h-16.35V.5h56.91v7.69Z"/>
  <path class="cls-1" d="M510.14,32.8h-8.18v16.92h8.18v7.69h-15.95v-8.26h-8.18v-8.18h-16.92v16.43h-15.87V.5h48.73V8.68h8.18v24.12Zm-16.35,0V8.68h-24.2v24.12h24.2Z"/>
  <path class="cls-1" d="M574.82,57.41h-15.95v-16.43h-25.09v16.43h-15.95V25.03h8.26V8.68h8.18V.5h24.12V8.68h8.18V25.11h8.26V57.41Zm-16.43-24.61v-15.95h-8.18V8.68h-7.77v8.18h-8.18v15.95h24.12Z"/>
  <path class="cls-1" d="M631.46,57.41h-32.81V24.6h9.19v28.37h23.62v4.43Z"/>
  <path class="cls-1" d="M668.74,57.41h-9.19v-9.47h-14.47v9.47h-9.19v-18.67h4.76v-9.43h4.71v-4.71h13.91v4.71h4.71v9.47h4.76v18.62Zm-9.47-14.19v-9.19h-4.71v-4.71h-4.48v4.71h-4.71v9.19h13.91Z"/>
  <path class="cls-1" d="M706.03,52.65h-4.71v4.76h-23.38v-4.76h-4.71v-4.43h9.19v4.76h14.42v-9.75h-18.9v-4.76h-4.71v-9.15h4.71v-4.71h23.38v4.71h4.71v4.43h-9.19v-4.71h-14.42v9.75h18.9v4.62h4.71v9.24Z"/>
  <path class="cls-1" d="M203.92,119.25h-10.64v10.64h-42.78v21.39h-20.65V77.21h63.43v10.64h10.64v31.4Zm-21.28,0v-31.4h-31.5v31.4h31.5Z"/>
  <path class="cls-1" d="M288.1,151.28h-20.76v-21.39h-32.66v21.39h-20.76v-42.14h10.75v-21.28h10.64v-10.64h31.4v10.64h10.64v21.39h10.75v42.04Zm-21.39-32.03v-20.76h-10.64v-10.64h-10.11v10.64h-10.64v20.76h31.4Z"/>
  <path class="cls-1" d="M372.28,119.25h-10.64v22.02h10.64v10.01h-20.76v-10.75h-10.64v-10.64h-22.02v21.39h-20.65V77.21h63.43v10.64h10.64v31.4Zm-21.28,0v-31.4h-31.5v31.4h31.5Z"/>
  <path class="cls-1" d="M456.46,151.28h-74.07V77.21h74.07v10.01h-53.31v22.02h42.67v10.01h-42.67v22.02h53.31v10.01Z"/>
  <path class="cls-1" d="M540.65,87.22h-10.64v53.31h-10.64v10.75h-42.14v-10.75h-10.64v-20.65h20.76v21.39h21.91v-54.05h-21.39v-10.01h52.78v10.01Z"/>
  <path class="cls-1" d="M624.83,151.28h-20.76v-21.39h-32.66v21.39h-20.76v-42.14h10.75v-21.28h10.64v-10.64h31.4v10.64h10.64v21.39h10.75v42.04Zm-21.39-32.03v-20.76h-10.64v-10.64h-10.11v10.64h-10.64v20.76h31.4Z"/>
  <path class="cls-1" d="M709.01,140.53h-10.64v10.75h-52.78v-10.75h-10.64v-10.01h20.76v10.75h32.56v-22.02h-42.67v-10.75h-10.64v-20.65h10.64v-10.64h52.78v10.64h10.64v10.01h-20.76v-10.64h-32.56v22.02h42.67v10.43h10.64v20.86Z"/>
</svg>